<svg width="16" height="12" viewBox="0 0 16 12" fill="none" xmlns="http://www.w3.org/2000/svg">
<rect width="16" height="12" fill="#E31D1C"/>
<path d="M3 1.68166L3.58778 2.87265L4.90211 3.06363L3.95105 3.99068L4.17557 5.2997L3 4.68166L1.82443 5.2997L2.04894 3.99068L1.09789 3.06363L2.41221 2.87265L3 1.68166Z" fill="#FFD018"/>
<path d="M5.62666 0.48671L6.37125 1.02769L6.08684 1.90301H5.16647L4.88206 1.02769L5.62666 0.48671Z" fill="#FFD018"/>
<path d="M8.00706 2.02086L8.15104 2.92989L7.33098 3.34773L6.68018 2.69693L7.09802 1.87688L8.00706 2.02086Z" fill="#FFD018"/>
<path d="M5.62667 6.75L4.88208 6.20902L5.16648 5.3337L6.08685 5.3337L6.37126 6.20902L5.62667 6.75Z" fill="#FFD018"/>
<path d="M8.00705 5.21583L7.09802 5.35981L6.68018 4.53976L7.33098 3.88896L8.15103 4.3068L8.00705 5.21583Z" fill="#FFD018"/>
</svg>
