<svg width="17" height="16" viewBox="0 0 17 16" fill="none" xmlns="http://www.w3.org/2000/svg">
<g clip-path="url(#clip0)">
<path d="M8.15862 0.24292C6.618 0.24292 5.11199 0.699765 3.83102 1.55568C2.55005 2.4116 1.55165 3.62815 0.962082 5.05149C0.372516 6.47483 0.218258 8.04103 0.518817 9.55204C0.819375 11.0631 1.56125 12.451 2.65063 13.5404C3.74001 14.6298 5.12796 15.3716 6.63897 15.6722C8.14998 15.9728 9.71618 15.8185 11.1395 15.2289C12.5629 14.6394 13.7794 13.641 14.6353 12.36C15.4912 11.079 15.9481 9.573 15.9481 8.03239C15.9481 5.9665 15.1274 3.98521 13.6666 2.5244C12.2058 1.06359 10.2245 0.24292 8.15862 0.24292V0.24292ZM7.79751 11.8634C7.37305 12.1672 6.86501 12.3321 6.34307 12.3357C5.44592 12.3357 4.61749 11.8434 3.99274 10.9475C3.43104 10.0893 3.11952 9.09151 3.09309 8.06613C3.09263 8.04696 3.09784 8.02808 3.10806 8.01185C3.11829 7.99563 3.13307 7.98278 3.15056 7.97491L3.76033 7.70127C3.77467 7.69476 3.79042 7.69197 3.80613 7.69316C3.82183 7.69434 3.83699 7.69947 3.85019 7.70806C3.86339 7.71666 3.87421 7.72844 3.88166 7.74232C3.8891 7.7562 3.89292 7.77174 3.89277 7.78749C3.89277 8.81334 4.16392 9.77297 4.65623 10.4889C5.1173 11.1587 5.71457 11.5273 6.33932 11.5273C6.67773 11.5264 7.0084 11.426 7.2902 11.2386C7.31005 11.226 7.33392 11.2213 7.35707 11.2255C7.38022 11.2297 7.40095 11.2424 7.41515 11.2611C7.53457 11.4246 7.66525 11.5795 7.80625 11.7247C7.81521 11.7342 7.82213 11.7454 7.82657 11.7576C7.83101 11.7699 7.83288 11.7829 7.83205 11.796C7.83123 11.809 7.82774 11.8217 7.8218 11.8333C7.81586 11.8449 7.80759 11.8551 7.79751 11.8634ZM12.3145 10.9475C11.6997 11.8434 10.8651 12.3357 9.96791 12.3357C9.07076 12.3357 8.24108 11.8434 7.62257 10.9475C7.03905 10.0991 6.71668 8.97703 6.71668 7.78999C6.71668 6.69166 7.34893 5.83325 8.15612 5.83325C8.9633 5.83325 9.59431 6.69166 9.59431 7.78999C9.6051 8.74875 9.37844 9.69528 8.93457 10.5452C8.92714 10.5587 8.91658 10.5702 8.90377 10.5787C8.89097 10.5873 8.8763 10.5926 8.861 10.5944C8.8457 10.5961 8.8302 10.5941 8.81583 10.5886C8.80145 10.5831 8.78861 10.5742 8.77838 10.5627C8.70343 10.4782 8.63414 10.3889 8.57096 10.2953C8.4958 10.1884 8.42736 10.077 8.36604 9.96164C8.35955 9.94864 8.35617 9.93431 8.35617 9.91978C8.35617 9.90525 8.35955 9.89092 8.36604 9.87792C8.65081 9.21899 8.79467 8.5078 8.78837 7.78999C8.78837 7.24645 8.51848 6.63793 8.15612 6.63793C7.79376 6.63793 7.52261 7.24645 7.52261 7.78999C7.52261 8.81584 7.79376 9.77546 8.28607 10.4914C8.74714 11.1612 9.34441 11.5298 9.96791 11.5298C10.5914 11.5298 11.1899 11.1549 11.651 10.4914C12.1433 9.77546 12.4145 8.81584 12.4145 7.78999C12.4145 6.76414 12.1433 5.80451 11.651 5.08729C11.5089 4.87943 11.341 4.69049 11.1512 4.52501C11.1391 4.51444 11.1299 4.50099 11.1245 4.48591C11.119 4.47083 11.1174 4.45461 11.1199 4.43877C11.1224 4.42292 11.1289 4.40797 11.1387 4.3953C11.1486 4.38263 11.1615 4.37266 11.1762 4.36632L11.7835 4.09267C11.8011 4.08463 11.8207 4.08224 11.8397 4.08582C11.8588 4.0894 11.8762 4.09878 11.8897 4.11267C12.0465 4.27248 12.1887 4.44602 12.3145 4.63121C12.898 5.48088 13.2204 6.6017 13.2204 7.78999C13.2204 8.97827 12.898 10.0991 12.3145 10.9475Z" fill="#A466FF"/>
</g>
<defs>
<clipPath id="clip0">
<rect width="16" height="16" fill="white" transform="translate(0.0214844)"/>
</clipPath>
</defs>
</svg>
