<svg width="16" height="12" viewBox="0 0 16 12" fill="none" xmlns="http://www.w3.org/2000/svg">
<rect y="4" width="16" height="4" fill="white"/>
<rect y="8" width="16" height="4" fill="#5387F4"/>
<rect width="16" height="4" fill="#5387F4"/>
<circle cx="8" cy="6" r="1.85" stroke="#FFC200" stroke-width="0.3"/>
<path fill-rule="evenodd" clip-rule="evenodd" d="M7.02792 5.19931C7.02599 5.20201 7.02464 5.20508 7.02395 5.20833C7.02327 5.21158 7.02327 5.21494 7.02394 5.21819C7.02462 5.22144 7.02596 5.22451 7.02789 5.22721C7.02981 5.22992 7.03228 5.23219 7.03513 5.2339C7.04085 5.23733 7.04769 5.23839 7.05419 5.23687C7.06069 5.23534 7.06634 5.23135 7.06995 5.22573C7.07188 5.22303 7.07323 5.21996 7.07392 5.21671C7.0746 5.21347 7.0746 5.21011 7.07393 5.20686C7.07325 5.20361 7.07191 5.20054 7.06998 5.19783C7.06806 5.19513 7.06559 5.19285 7.06274 5.19115C7.05702 5.18772 7.05018 5.18665 7.04368 5.18818C7.03718 5.1897 7.03153 5.1937 7.02792 5.19931Z" fill="#FF0000"/>
<path fill-rule="evenodd" clip-rule="evenodd" d="M7.11379 5.26745C7.11187 5.27016 7.11053 5.27325 7.10986 5.2765C7.1092 5.27976 7.10921 5.28312 7.10991 5.28637C7.11061 5.28962 7.11198 5.2927 7.11393 5.29539C7.11588 5.29809 7.11836 5.30035 7.12123 5.30203C7.12695 5.30542 7.13377 5.30645 7.14024 5.30487C7.1467 5.3033 7.15229 5.29927 7.15582 5.29362C7.15775 5.29092 7.1591 5.28785 7.15978 5.28461C7.16047 5.28136 7.16047 5.278 7.15979 5.27475C7.15912 5.2715 7.15777 5.26843 7.15585 5.26573C7.15392 5.26302 7.15146 5.26074 7.14861 5.25904C7.14287 5.25557 7.13599 5.25451 7.12947 5.25608C7.12295 5.25766 7.11731 5.26174 7.11379 5.26745Z" fill="#FF0000"/>
<path fill-rule="evenodd" clip-rule="evenodd" d="M7.56473 4.91748C7.56473 4.91748 6.61201 5.33657 6.77772 6.2026C6.94343 7.06862 7.47419 7.06262 7.68314 7.15845C7.89208 7.25427 8.03497 7.39092 8.11711 7.37195C8.18385 7.35188 8.24789 7.32374 8.3078 7.28813C8.3078 7.28813 8.31645 7.43031 8.14929 7.45625C7.98214 7.48219 7.76239 7.2317 7.65672 7.20384C7.55105 7.17598 6.90308 7.10441 6.7453 6.22325C6.56133 5.28253 7.55873 4.9451 7.56473 4.91748Z" fill="#006700"/>
<path fill-rule="evenodd" clip-rule="evenodd" d="M7.08196 5.10193C7.06395 5.17398 7.06371 5.23234 7.08196 5.23378C7.10021 5.23522 7.12783 5.1783 7.1456 5.10697C7.16337 5.03565 7.16385 4.97657 7.1456 4.97512C7.12735 4.97368 7.09973 5.0306 7.08196 5.10193Z" fill="#006700"/>
<path fill-rule="evenodd" clip-rule="evenodd" d="M7.1164 5.11113C7.08325 5.1791 7.06836 5.23914 7.08494 5.2449C7.10151 5.25067 7.14017 5.20023 7.17307 5.13227C7.20598 5.0643 7.22111 5.00426 7.20454 4.9985C7.18797 4.99273 7.1493 5.04293 7.1164 5.11113Z" fill="#006700"/>
<path fill-rule="evenodd" clip-rule="evenodd" d="M7.21188 5.17536C7.14415 5.19554 7.0918 5.22652 7.0918 5.24477C7.0918 5.26302 7.14944 5.26134 7.21716 5.24117C7.28489 5.22099 7.33724 5.18977 7.33724 5.17176C7.33724 5.15375 7.2784 5.15519 7.21188 5.17536Z" fill="#006700"/>
<path fill-rule="evenodd" clip-rule="evenodd" d="M7.19623 5.13993C7.13475 5.1822 7.09104 5.22879 7.09848 5.24392C7.10593 5.25905 7.16213 5.23767 7.22385 5.19589C7.28557 5.1541 7.32904 5.10726 7.32159 5.09189C7.31415 5.07652 7.25795 5.0979 7.19623 5.13993Z" fill="#006700"/>
<path fill-rule="evenodd" clip-rule="evenodd" d="M7.15634 5.12311C7.10398 5.17859 7.07084 5.23311 7.08237 5.24511C7.0939 5.25712 7.14553 5.2211 7.19765 5.16658C7.24976 5.11206 7.28314 5.05634 7.27162 5.04434C7.26009 5.03233 7.20845 5.06763 7.15634 5.12311Z" fill="#006700"/>
<path fill-rule="evenodd" clip-rule="evenodd" d="M6.76443 5.53682C6.76327 5.54132 6.76344 5.54606 6.76493 5.55047C6.76641 5.55488 6.76914 5.55877 6.77279 5.56165C6.77644 5.56454 6.78084 5.5663 6.78548 5.56673C6.79011 5.56716 6.79476 5.56623 6.79888 5.56406C6.803 5.5619 6.80639 5.55858 6.80866 5.55452C6.81093 5.55046 6.81196 5.54582 6.81165 5.54118C6.81133 5.53654 6.80968 5.53209 6.80688 5.52838C6.80408 5.52466 6.80027 5.52183 6.79589 5.52024C6.79275 5.5191 6.7894 5.51863 6.78606 5.51885C6.78272 5.51908 6.77946 5.52001 6.7765 5.52157C6.77353 5.52313 6.77093 5.52529 6.76885 5.52792C6.76678 5.53054 6.76527 5.53357 6.76443 5.53682Z" fill="#FF0000"/>
<path fill-rule="evenodd" clip-rule="evenodd" d="M6.86402 5.5819C6.86288 5.58639 6.86306 5.59112 6.86455 5.59552C6.86604 5.59991 6.86876 5.60378 6.8724 5.60665C6.87604 5.60953 6.88043 5.61129 6.88505 5.61173C6.88967 5.61216 6.89431 5.61125 6.89842 5.6091C6.90253 5.60695 6.90593 5.60366 6.90821 5.59962C6.91049 5.59558 6.91155 5.59097 6.91127 5.58634C6.91098 5.58171 6.90936 5.57726 6.9066 5.57353C6.90385 5.5698 6.90007 5.56695 6.89572 5.56533C6.88932 5.56336 6.8824 5.564 6.87647 5.56711C6.87054 5.57021 6.86607 5.57552 6.86402 5.5819Z" fill="#FF0000"/>
<path fill-rule="evenodd" clip-rule="evenodd" d="M6.79503 5.34471C6.79335 5.45519 6.81208 5.53997 6.83633 5.53396C6.86059 5.52796 6.88197 5.43357 6.88437 5.3231C6.88677 5.21262 6.86732 5.12809 6.84306 5.13409C6.8188 5.14009 6.79647 5.23448 6.79503 5.34471Z" fill="#006700"/>
<path fill-rule="evenodd" clip-rule="evenodd" d="M6.84418 5.34237C6.82017 5.45501 6.82017 5.54723 6.84418 5.54843C6.8682 5.54964 6.90615 5.45933 6.92992 5.3467C6.9537 5.23406 6.95394 5.14184 6.92992 5.14064C6.90591 5.13944 6.86796 5.22974 6.84418 5.34237Z" fill="#006700"/>
<path fill-rule="evenodd" clip-rule="evenodd" d="M6.99516 5.39107C6.90798 5.45087 6.8441 5.5198 6.85227 5.54501C6.86043 5.57023 6.93776 5.54237 7.0247 5.48257C7.11164 5.42277 7.17577 5.35384 7.1676 5.32863C7.15943 5.30341 7.08282 5.33127 6.99516 5.39107Z" fill="#006700"/>
<path fill-rule="evenodd" clip-rule="evenodd" d="M6.96593 5.34686C6.89388 5.43524 6.84897 5.52194 6.86434 5.54043C6.87971 5.55892 6.95032 5.50225 7.02213 5.41387C7.09394 5.32549 7.13909 5.23879 7.12372 5.22029C7.10835 5.2018 7.03774 5.25848 6.96593 5.34686Z" fill="#006700"/>
<path fill-rule="evenodd" clip-rule="evenodd" d="M6.90503 5.34107C6.85052 5.44434 6.82242 5.53752 6.84235 5.54953C6.86228 5.56154 6.92208 5.48733 6.9766 5.38406C7.03112 5.28079 7.05898 5.18761 7.03928 5.1756C7.01959 5.16359 6.95931 5.23732 6.90503 5.34107Z" fill="#006700"/>
<path fill-rule="evenodd" clip-rule="evenodd" d="M6.64016 5.74787C6.65841 5.85714 6.69131 5.93712 6.71437 5.92631C6.73742 5.9155 6.74103 5.81848 6.72301 5.70896C6.705 5.59945 6.67186 5.51971 6.64904 5.53052C6.62623 5.54133 6.62215 5.63835 6.64016 5.74787Z" fill="#006700"/>
<path fill-rule="evenodd" clip-rule="evenodd" d="M6.68788 5.73577C6.68476 5.85177 6.70109 5.94279 6.72439 5.93943C6.74768 5.93607 6.76906 5.83928 6.77242 5.72328C6.77578 5.60728 6.75921 5.51626 6.73592 5.51962C6.71262 5.52298 6.691 5.62001 6.68788 5.73577Z" fill="#006700"/>
<path fill-rule="evenodd" clip-rule="evenodd" d="M6.84471 5.75423C6.77025 5.83036 6.72006 5.91106 6.73231 5.93436C6.74456 5.95765 6.8154 5.9149 6.88986 5.83829C6.96431 5.76168 7.01474 5.68146 7.00225 5.65817C6.98976 5.63487 6.9194 5.6781 6.84471 5.75423Z" fill="#006700"/>
<path fill-rule="evenodd" clip-rule="evenodd" d="M6.80698 5.71753C6.75246 5.81888 6.7234 5.9135 6.7419 5.92863C6.76039 5.94376 6.81923 5.87412 6.87351 5.77277C6.92778 5.67142 6.95708 5.57679 6.93859 5.56166C6.9201 5.54653 6.86126 5.61498 6.80698 5.71753Z" fill="#006700"/>
<path fill-rule="evenodd" clip-rule="evenodd" d="M6.74626 5.72271C6.71119 5.83535 6.70039 5.9331 6.72224 5.94102C6.7441 5.94895 6.78949 5.86393 6.82431 5.75129C6.85914 5.63865 6.87018 5.54091 6.84833 5.53298C6.82647 5.52506 6.78012 5.61008 6.74626 5.72271Z" fill="#006700"/>
<path fill-rule="evenodd" clip-rule="evenodd" d="M6.62807 6.198C6.68595 6.29167 6.74647 6.35195 6.76304 6.33225C6.77962 6.31256 6.74623 6.22082 6.68811 6.12715C6.62999 6.03349 6.56995 5.97321 6.55314 5.99266C6.53633 6.01212 6.57019 6.1041 6.62807 6.198Z" fill="#006700"/>
<path fill-rule="evenodd" clip-rule="evenodd" d="M6.66604 6.16695C6.70735 6.27575 6.75683 6.35332 6.77652 6.34035C6.79621 6.32738 6.77892 6.22868 6.73785 6.11988C6.69679 6.01109 6.64731 5.93352 6.62738 5.94648C6.60745 5.95945 6.62498 6.05816 6.66604 6.16695Z" fill="#006700"/>
<path fill-rule="evenodd" clip-rule="evenodd" d="M6.81558 6.11725C6.77715 6.21932 6.76226 6.31538 6.78244 6.33171C6.80261 6.34804 6.85016 6.27888 6.88859 6.17681C6.92702 6.07474 6.94215 5.97867 6.92197 5.96234C6.9018 5.94601 6.85401 6.01542 6.81558 6.11725Z" fill="#006700"/>
<path fill-rule="evenodd" clip-rule="evenodd" d="M6.76586 6.0984C6.75529 6.21536 6.76586 6.31455 6.78723 6.32151C6.80861 6.32848 6.83647 6.23842 6.84728 6.12146C6.85808 6.0045 6.84728 5.90531 6.82566 5.89811C6.80405 5.8909 6.77643 5.98192 6.76586 6.0984Z" fill="#006700"/>
<path fill-rule="evenodd" clip-rule="evenodd" d="M6.71383 6.1297C6.72512 6.24978 6.75226 6.34417 6.77483 6.34248C6.79741 6.3408 6.80629 6.24282 6.79501 6.1237C6.78372 6.00457 6.75634 5.90923 6.734 5.91091C6.71167 5.91259 6.70254 6.01058 6.71383 6.1297Z" fill="#006700"/>
<path fill-rule="evenodd" clip-rule="evenodd" d="M6.74753 6.65422C6.84167 6.73636 6.92741 6.78055 6.93966 6.75269C6.95191 6.72483 6.88538 6.63597 6.79124 6.55383C6.69709 6.4717 6.61135 6.42751 6.59911 6.45537C6.58686 6.48322 6.65362 6.57209 6.74753 6.65422Z" fill="#006700"/>
<path fill-rule="evenodd" clip-rule="evenodd" d="M7.5142 4.89924C7.51226 4.90019 7.51054 4.90156 7.50917 4.90325C7.50781 4.90493 7.50683 4.9069 7.5063 4.909C7.50578 4.91111 7.50572 4.9133 7.50613 4.91543C7.50654 4.91756 7.50741 4.91957 7.50868 4.92133C7.51143 4.92489 7.5153 4.9274 7.51967 4.92845C7.52404 4.9295 7.52864 4.92902 7.5327 4.9271C7.53465 4.92612 7.53637 4.92473 7.53774 4.92302C7.5391 4.92131 7.54008 4.91933 7.54061 4.9172C7.54113 4.91508 7.54119 4.91287 7.54078 4.91072C7.54037 4.90857 7.53949 4.90654 7.53822 4.90476C7.53547 4.90121 7.53158 4.89872 7.5272 4.89771C7.52282 4.8967 7.51823 4.89724 7.5142 4.89924Z" fill="#FF0000"/>
<path fill-rule="evenodd" clip-rule="evenodd" d="M7.55131 4.96485C7.54936 4.9658 7.54765 4.96717 7.54628 4.96886C7.54492 4.97054 7.54394 4.97251 7.54341 4.97461C7.54289 4.97672 7.54283 4.97891 7.54324 4.98104C7.54365 4.98317 7.54452 4.98519 7.54579 4.98695C7.54857 4.99046 7.55246 4.99292 7.55683 4.99393C7.56119 4.99493 7.56577 4.99442 7.56981 4.99247C7.57175 4.99152 7.57347 4.99015 7.57484 4.98846C7.5762 4.98677 7.57718 4.98481 7.57771 4.98271C7.57823 4.9806 7.57829 4.97841 7.57788 4.97628C7.57747 4.97415 7.5766 4.97213 7.57533 4.97037C7.57255 4.96686 7.56866 4.9644 7.56429 4.96339C7.55993 4.96239 7.55535 4.9629 7.55131 4.96485Z" fill="#FF0000"/>
<path fill-rule="evenodd" clip-rule="evenodd" d="M6.7795 6.6062C6.85971 6.71115 6.9392 6.7784 6.95674 6.75679C6.97427 6.73517 6.92359 6.63262 6.84314 6.52767C6.76268 6.42272 6.68343 6.35547 6.66566 6.37709C6.64789 6.3987 6.69856 6.50125 6.7795 6.6062Z" fill="#006700"/>
<path fill-rule="evenodd" clip-rule="evenodd" d="M6.92873 6.49587C6.91912 6.62267 6.93377 6.73411 6.96115 6.74492C6.98853 6.75572 7.01879 6.66134 7.0284 6.53453C7.03801 6.40773 7.02336 6.29629 6.99574 6.28572C6.96812 6.27516 6.93834 6.36906 6.92873 6.49587Z" fill="#006700"/>
<path fill-rule="evenodd" clip-rule="evenodd" d="M6.86693 6.49282C6.89287 6.62587 6.93562 6.73298 6.963 6.7313C6.99038 6.72962 6.99038 6.62131 6.96444 6.48826C6.9385 6.35521 6.89575 6.24809 6.86837 6.24978C6.841 6.25146 6.841 6.35977 6.86693 6.49282Z" fill="#006700"/>
<path fill-rule="evenodd" clip-rule="evenodd" d="M6.81964 6.54714C6.87032 6.67443 6.93108 6.76953 6.95534 6.75945C6.97959 6.74936 6.95774 6.63768 6.9073 6.5104C6.85687 6.38311 6.79563 6.28776 6.77161 6.29785C6.74759 6.30794 6.76873 6.41961 6.81964 6.54714Z" fill="#006700"/>
<path fill-rule="evenodd" clip-rule="evenodd" d="M7.05254 7.05353C7.18727 7.07611 7.2939 7.06746 7.29054 7.03408C7.28718 7.0007 7.1755 6.95507 7.04077 6.93249C6.90604 6.90991 6.80061 6.91856 6.80277 6.95194C6.80493 6.98533 6.91781 7.03072 7.05254 7.05353Z" fill="#006700"/>
<path fill-rule="evenodd" clip-rule="evenodd" d="M6.88958 6.80251C6.89484 6.8066 6.90151 6.80845 6.90812 6.80764C6.91474 6.80683 6.92076 6.80343 6.92488 6.79819C6.92693 6.79559 6.92842 6.79259 6.92925 6.78939C6.93009 6.78618 6.93025 6.78284 6.92973 6.77957C6.92921 6.7763 6.92802 6.77317 6.92624 6.77038C6.92445 6.7676 6.92211 6.76521 6.91936 6.76337C6.9141 6.75928 6.90743 6.75743 6.90081 6.75824C6.8942 6.75905 6.88817 6.76245 6.88405 6.76769C6.882 6.77029 6.88052 6.77329 6.87968 6.77649C6.87885 6.7797 6.87868 6.78304 6.8792 6.78631C6.87972 6.78958 6.88091 6.79271 6.8827 6.7955C6.88448 6.79828 6.88682 6.80067 6.88958 6.80251Z" fill="#FF0000"/>
<path fill-rule="evenodd" clip-rule="evenodd" d="M6.96755 6.72268C6.97287 6.72672 6.97956 6.72853 6.98619 6.72773C6.99283 6.72692 6.99889 6.72356 7.00309 6.71836C7.00514 6.71576 7.00663 6.71276 7.00746 6.70955C7.0083 6.70635 7.00846 6.70301 7.00794 6.69974C7.00742 6.69647 7.00623 6.69334 7.00445 6.69055C7.00266 6.68776 7.00032 6.68537 6.99757 6.68353C6.9923 6.67944 6.98564 6.6776 6.97902 6.67841C6.97241 6.67922 6.96638 6.68262 6.96226 6.68786C6.9602 6.69044 6.9587 6.69343 6.95784 6.69662C6.95699 6.69982 6.95681 6.70315 6.9573 6.70642C6.9578 6.70969 6.95896 6.71282 6.96073 6.71562C6.96249 6.71842 6.96481 6.72082 6.96755 6.72268Z" fill="#FF0000"/>
<path fill-rule="evenodd" clip-rule="evenodd" d="M7.0586 6.98866C7.19237 7.04101 7.30501 7.05831 7.31053 7.02732C7.31606 6.99634 7.21183 6.92862 7.07806 6.8765C6.94428 6.82439 6.83165 6.80686 6.82637 6.83784C6.82108 6.86882 6.92483 6.93654 7.0586 6.98866Z" fill="#006700"/>
<path fill-rule="evenodd" clip-rule="evenodd" d="M7.14327 6.79587C7.20187 6.92219 7.2756 7.01946 7.30778 7.01346C7.33996 7.00745 7.31859 6.9001 7.25975 6.77329C7.20091 6.64649 7.12718 6.54946 7.09499 6.55571C7.06281 6.56195 7.08443 6.66978 7.14327 6.79587Z" fill="#006700"/>
<path fill-rule="evenodd" clip-rule="evenodd" d="M7.08409 6.82833C7.18016 6.93953 7.27862 7.0159 7.30384 6.99885C7.32906 6.9818 7.27142 6.87877 7.17511 6.76685C7.07881 6.65494 6.98034 6.57953 6.95512 6.59634C6.92991 6.61315 6.98779 6.71714 7.08409 6.82833Z" fill="#006700"/>
<path fill-rule="evenodd" clip-rule="evenodd" d="M7.06743 6.90837C7.18463 6.99963 7.29414 7.05415 7.31191 7.03037C7.32968 7.0066 7.24923 6.91317 7.13203 6.82191C7.01483 6.73065 6.90532 6.67613 6.8873 6.69991C6.86929 6.72368 6.94903 6.81711 7.06743 6.90837Z" fill="#006700"/>
<path fill-rule="evenodd" clip-rule="evenodd" d="M7.45581 7.27697C7.59414 7.27913 7.7063 7.24791 7.7063 7.20732C7.7063 7.16673 7.5939 7.13215 7.45533 7.12999C7.31675 7.12783 7.20484 7.15929 7.20508 7.19988C7.20532 7.24046 7.31748 7.27481 7.45581 7.27697Z" fill="#006700"/>
<path fill-rule="evenodd" clip-rule="evenodd" d="M7.48892 7.04738C7.57658 7.1629 7.67168 7.23615 7.70122 7.21093C7.73076 7.18571 7.68345 7.07164 7.59579 6.95612C7.50813 6.8406 7.41303 6.76735 7.38373 6.79257C7.35443 6.81778 7.40126 6.93186 7.48892 7.04738Z" fill="#006700"/>
<path fill-rule="evenodd" clip-rule="evenodd" d="M7.45303 7.16462C7.58175 7.2213 7.69727 7.23667 7.71144 7.19921C7.72561 7.16174 7.63267 7.08561 7.50394 7.02893C7.37521 6.97225 7.25946 6.95688 7.24553 6.99435C7.2316 7.03181 7.3243 7.10795 7.45303 7.16462Z" fill="#006700"/>
<path fill-rule="evenodd" clip-rule="evenodd" d="M7.38466 4.93975C7.32077 4.99835 7.28235 5.05311 7.29868 5.06224C7.31501 5.07136 7.37985 5.03101 7.44278 4.97265C7.5057 4.91429 7.54485 4.8593 7.52851 4.85017C7.51218 4.84105 7.4483 4.88115 7.38466 4.93975Z" fill="#006700"/>
<path fill-rule="evenodd" clip-rule="evenodd" d="M7.46082 5.00529C7.37484 5.01658 7.30231 5.0406 7.29895 5.05885C7.29559 5.0771 7.36283 5.08286 7.44905 5.07134C7.53527 5.05981 7.60756 5.03579 7.61092 5.01754C7.61428 4.99929 7.54656 4.99376 7.46082 5.00529Z" fill="#006700"/>
<path fill-rule="evenodd" clip-rule="evenodd" d="M7.43104 4.96397C7.34987 5.00624 7.29103 5.05187 7.29967 5.06628C7.30832 5.08069 7.38109 5.05835 7.46226 5.01608C7.54344 4.97381 7.60204 4.92818 7.59363 4.91377C7.58523 4.89936 7.51198 4.92194 7.43104 4.96397Z" fill="#006700"/>
<path fill-rule="evenodd" clip-rule="evenodd" d="M6.65234 5.931C6.65234 5.93575 6.65375 5.94039 6.65639 5.94434C6.65903 5.94829 6.66278 5.95137 6.66717 5.95319C6.67156 5.955 6.67639 5.95548 6.68105 5.95455C6.6857 5.95363 6.68998 5.95134 6.69334 5.94798C6.6967 5.94462 6.69899 5.94034 6.69991 5.93568C6.70084 5.93103 6.70037 5.9262 6.69855 5.92181C6.69673 5.91742 6.69365 5.91367 6.6897 5.91103C6.68575 5.90839 6.68111 5.90698 6.67636 5.90698C6.66999 5.90698 6.66388 5.90951 6.65938 5.91402C6.65487 5.91852 6.65234 5.92463 6.65234 5.931Z" fill="#FF0000"/>
<path fill-rule="evenodd" clip-rule="evenodd" d="M6.76372 5.94294C6.764 5.94762 6.76564 5.95211 6.76844 5.95587C6.77125 5.95962 6.77509 5.96247 6.7795 5.96407C6.7839 5.96567 6.78868 5.96595 6.79324 5.96486C6.7978 5.96378 6.80194 5.96139 6.80516 5.95798C6.80837 5.95457 6.81052 5.95029 6.81134 5.94568C6.81215 5.94106 6.8116 5.93631 6.80975 5.932C6.8079 5.9277 6.80482 5.92403 6.80091 5.92145C6.797 5.91887 6.79242 5.91749 6.78773 5.91748C6.78445 5.91747 6.78121 5.91814 6.7782 5.91944C6.77518 5.92073 6.77247 5.92263 6.77022 5.92502C6.76797 5.9274 6.76623 5.93022 6.76511 5.9333C6.76399 5.93639 6.76352 5.93966 6.76372 5.94294Z" fill="#FF0000"/>
<path fill-rule="evenodd" clip-rule="evenodd" d="M6.7149 6.38434C6.71822 6.39012 6.72368 6.39437 6.73011 6.39616C6.73653 6.39796 6.7434 6.39716 6.74924 6.39395C6.75217 6.39237 6.75474 6.39019 6.75679 6.38756C6.75883 6.38493 6.76031 6.38191 6.76112 6.37868C6.76193 6.37545 6.76207 6.37208 6.76151 6.3688C6.76095 6.36552 6.75972 6.36239 6.75789 6.3596C6.75452 6.35387 6.74906 6.34967 6.74265 6.34787C6.73625 6.34608 6.7294 6.34684 6.72354 6.35C6.72061 6.35158 6.71804 6.35375 6.716 6.35638C6.71395 6.35901 6.71248 6.36204 6.71166 6.36527C6.71085 6.3685 6.71072 6.37186 6.71128 6.37514C6.71183 6.37843 6.71307 6.38156 6.7149 6.38434Z" fill="#FF0000"/>
<path fill-rule="evenodd" clip-rule="evenodd" d="M6.81634 6.33982C6.81784 6.34283 6.81995 6.3455 6.82254 6.34764C6.82513 6.34978 6.82814 6.35136 6.83138 6.35226C6.83462 6.35317 6.83801 6.35338 6.84133 6.3529C6.84466 6.35241 6.84785 6.35123 6.85069 6.34943C6.85358 6.34785 6.85612 6.34568 6.85814 6.34307C6.86017 6.34046 6.86163 6.33746 6.86244 6.33426C6.86325 6.33106 6.86339 6.32773 6.86286 6.32447C6.86233 6.32121 6.86113 6.3181 6.85933 6.31533C6.85784 6.31232 6.85573 6.30966 6.85314 6.30751C6.85054 6.30537 6.84753 6.3038 6.8443 6.30289C6.84106 6.30198 6.83767 6.30177 6.83434 6.30226C6.83102 6.30274 6.82783 6.30392 6.82499 6.30572C6.82209 6.30731 6.81956 6.30947 6.81753 6.31208C6.81551 6.31469 6.81405 6.31769 6.81324 6.32089C6.81243 6.32409 6.81228 6.32742 6.81282 6.33068C6.81335 6.33394 6.81455 6.33705 6.81634 6.33982Z" fill="#FF0000"/>
<path fill-rule="evenodd" clip-rule="evenodd" d="M7.2591 5.02861C7.25747 5.03003 7.25616 5.03178 7.25527 5.03375C7.25437 5.03572 7.25391 5.03786 7.25391 5.04002C7.25391 5.04218 7.25437 5.04432 7.25527 5.04628C7.25616 5.04825 7.25747 5.05 7.2591 5.05142C7.26289 5.05423 7.26755 5.0556 7.27225 5.05529C7.27696 5.05498 7.2814 5.05302 7.2848 5.04974C7.28639 5.04826 7.28764 5.04644 7.28846 5.04443C7.28928 5.04241 7.28964 5.04023 7.28953 5.03806C7.28941 5.03588 7.28882 5.03376 7.2878 5.03183C7.28677 5.02991 7.28534 5.02824 7.28359 5.02693C7.27992 5.02439 7.2755 5.02318 7.27105 5.02348C7.2666 5.02379 7.26239 5.0256 7.2591 5.02861Z" fill="#FF0000"/>
<path fill-rule="evenodd" clip-rule="evenodd" d="M7.31335 5.08093C7.31175 5.08241 7.3105 5.08423 7.30968 5.08625C7.30886 5.08827 7.3085 5.09044 7.30861 5.09262C7.30873 5.09479 7.30932 5.09692 7.31034 5.09884C7.31137 5.10076 7.3128 5.10243 7.31455 5.10374C7.3183 5.10653 7.32292 5.10789 7.32758 5.10758C7.33225 5.10727 7.33665 5.10532 7.34 5.10206C7.34185 5.10065 7.34334 5.09883 7.34437 5.09675C7.34539 5.09467 7.34593 5.09238 7.34593 5.09005C7.34593 5.08773 7.34539 5.08544 7.34437 5.08336C7.34334 5.08128 7.34185 5.07946 7.34 5.07805C7.336 5.07512 7.33105 5.0738 7.32612 5.07433C7.32119 5.07487 7.31663 5.07722 7.31335 5.08093Z" fill="#FF0000"/>
<path fill-rule="evenodd" clip-rule="evenodd" d="M8.96424 5.21021C8.96617 5.21291 8.96752 5.21598 8.96821 5.21923C8.96889 5.22248 8.9689 5.22583 8.96822 5.22908C8.96754 5.23233 8.9662 5.23541 8.96427 5.23811C8.96235 5.24082 8.95988 5.24309 8.95704 5.2448C8.95132 5.24819 8.94449 5.24921 8.93803 5.24764C8.93157 5.24607 8.92598 5.24203 8.92245 5.23639C8.92052 5.23369 8.91917 5.23062 8.91849 5.22737C8.9178 5.22412 8.9178 5.22077 8.91847 5.21752C8.91915 5.21427 8.92049 5.2112 8.92242 5.20849C8.92434 5.20579 8.92681 5.20351 8.92966 5.20181C8.93538 5.19841 8.9422 5.19739 8.94866 5.19896C8.95512 5.20053 8.96072 5.20457 8.96424 5.21021Z" fill="#FF0000"/>
<path fill-rule="evenodd" clip-rule="evenodd" d="M8.87623 5.27824C8.87795 5.28099 8.87911 5.28404 8.87965 5.28723C8.88019 5.29043 8.88009 5.29369 8.87937 5.29685C8.87864 5.30001 8.8773 5.30299 8.87542 5.30563C8.87355 5.30826 8.87117 5.31051 8.86843 5.31222C8.86288 5.3157 8.85619 5.31682 8.84982 5.31536C8.84344 5.3139 8.83791 5.30996 8.83444 5.30442C8.83255 5.30173 8.83123 5.29867 8.83057 5.29545C8.82991 5.29223 8.82991 5.2889 8.83059 5.28568C8.83127 5.28246 8.8326 5.27942 8.8345 5.27673C8.8364 5.27405 8.83883 5.27178 8.84165 5.27008C8.84441 5.26818 8.84753 5.26689 8.85082 5.26628C8.85411 5.26566 8.85749 5.26574 8.86074 5.26651C8.864 5.26728 8.86706 5.26872 8.86973 5.27074C8.87239 5.27276 8.87461 5.27532 8.87623 5.27824Z" fill="#FF0000"/>
<path fill-rule="evenodd" clip-rule="evenodd" d="M8.42674 4.92822C8.42674 4.92822 9.38019 5.34755 9.21376 6.21334C9.04732 7.07913 8.51728 7.0736 8.3081 7.16919C8.09892 7.26477 7.9565 7.40191 7.87436 7.38269C7.80762 7.36263 7.74359 7.33448 7.68368 7.29888C7.68368 7.29888 7.67479 7.44129 7.84194 7.46699C8.0091 7.49269 8.22909 7.24268 8.33452 7.21482C8.43995 7.18696 9.08815 7.11515 9.24714 6.23399C9.4299 5.29351 8.4325 4.95584 8.42674 4.92822Z" fill="#006700"/>
<path fill-rule="evenodd" clip-rule="evenodd" d="M8.90792 5.11266C8.92569 5.18471 8.92617 5.24307 8.90792 5.24427C8.88967 5.24547 8.86301 5.18903 8.84404 5.11698C8.82507 5.04493 8.82579 4.98657 8.84404 4.98537C8.86229 4.98417 8.88991 5.04109 8.90792 5.11266Z" fill="#006700"/>
<path fill-rule="evenodd" clip-rule="evenodd" d="M8.87445 5.12139C8.90735 5.18959 8.92248 5.24939 8.90567 5.2554C8.88886 5.2614 8.85043 5.21073 8.81753 5.14252C8.78463 5.07431 8.7695 5.01451 8.78607 5.00875C8.80264 5.00299 8.8413 5.05342 8.87445 5.12139Z" fill="#006700"/>
<path fill-rule="evenodd" clip-rule="evenodd" d="M8.77968 5.18596C8.84741 5.20614 8.90096 5.23736 8.89976 5.25537C8.89856 5.27338 8.84188 5.27194 8.7744 5.25177C8.70691 5.2316 8.65312 5.20061 8.65432 5.18236C8.65552 5.16411 8.7122 5.16507 8.77968 5.18596Z" fill="#006700"/>
<path fill-rule="evenodd" clip-rule="evenodd" d="M8.79397 5.15084C8.85545 5.19287 8.8994 5.23946 8.89171 5.25484C8.88403 5.27021 8.82807 5.24835 8.76659 5.2068C8.70511 5.16525 8.66116 5.11794 8.66884 5.10281C8.67653 5.08768 8.73248 5.10858 8.79397 5.15084Z" fill="#006700"/>
<path fill-rule="evenodd" clip-rule="evenodd" d="M8.8346 5.13362C8.88696 5.1891 8.91986 5.24386 8.90858 5.25587C8.89729 5.26788 8.84541 5.23185 8.79306 5.17709C8.7407 5.12234 8.70756 5.0671 8.71909 5.05509C8.73061 5.04308 8.78225 5.07815 8.8346 5.13362Z" fill="#006700"/>
<path fill-rule="evenodd" clip-rule="evenodd" d="M9.2269 5.54734C9.2281 5.55044 9.22864 5.55375 9.22849 5.55707C9.22835 5.56039 9.22751 5.56364 9.22605 5.56662C9.22458 5.5696 9.22251 5.57224 9.21997 5.57438C9.21743 5.57652 9.21447 5.57811 9.21129 5.57905C9.20656 5.5807 9.20145 5.58091 9.19661 5.57965C9.19176 5.57839 9.1874 5.57572 9.18408 5.57197C9.18076 5.56822 9.17863 5.56357 9.17796 5.55861C9.17729 5.55365 9.17812 5.5486 9.18033 5.54411C9.18254 5.53961 9.18604 5.53588 9.19038 5.53339C9.19472 5.53089 9.19971 5.52974 9.2047 5.53009C9.2097 5.53044 9.21447 5.53226 9.21843 5.53534C9.22238 5.53841 9.22533 5.54259 9.2269 5.54734Z" fill="#FF0000"/>
<path fill-rule="evenodd" clip-rule="evenodd" d="M9.12582 5.59236C9.12683 5.59551 9.12721 5.59883 9.12693 5.60213C9.12666 5.60543 9.12574 5.60865 9.12422 5.61159C9.12271 5.61453 9.12062 5.61715 9.1181 5.61929C9.11557 5.62143 9.11264 5.62305 9.10949 5.62406C9.10634 5.62507 9.10301 5.62544 9.09971 5.62517C9.09641 5.6249 9.0932 5.62397 9.09026 5.62246C9.08731 5.62094 9.0847 5.61886 9.08256 5.61633C9.08042 5.6138 9.0788 5.61088 9.07779 5.60773C9.07659 5.60463 9.07605 5.60132 9.0762 5.598C9.07634 5.59468 9.07718 5.59143 9.07864 5.58845C9.08011 5.58547 9.08218 5.58283 9.08472 5.58069C9.08726 5.57855 9.09021 5.57696 9.0934 5.57602C9.09658 5.57471 9.10001 5.5741 9.10345 5.57424C9.10689 5.57437 9.11027 5.57524 9.11334 5.57679C9.11642 5.57833 9.11912 5.58053 9.12127 5.58321C9.12343 5.5859 9.12498 5.58902 9.12582 5.59236Z" fill="#FF0000"/>
<path fill-rule="evenodd" clip-rule="evenodd" d="M9.19525 5.35543C9.19669 5.4659 9.1782 5.55044 9.1537 5.54444C9.12921 5.53843 9.10807 5.44405 9.10567 5.33381C9.10327 5.22358 9.12272 5.1388 9.14722 5.14456C9.17171 5.15033 9.19357 5.24495 9.19525 5.35543Z" fill="#006700"/>
<path fill-rule="evenodd" clip-rule="evenodd" d="M9.14549 5.35311C9.1695 5.46575 9.1695 5.55797 9.14549 5.55917C9.12147 5.56037 9.08304 5.47007 9.05903 5.3572C9.03501 5.24432 9.03501 5.15234 9.05903 5.15113C9.08304 5.14993 9.12195 5.24072 9.14549 5.35311Z" fill="#006700"/>
<path fill-rule="evenodd" clip-rule="evenodd" d="M8.99565 5.40181C9.08259 5.46161 9.14671 5.53054 9.1383 5.55576C9.1299 5.58097 9.05305 5.55311 8.96587 5.49331C8.87869 5.43351 8.8148 5.36459 8.82297 5.33937C8.83113 5.31415 8.90847 5.34201 8.99565 5.40181Z" fill="#006700"/>
<path fill-rule="evenodd" clip-rule="evenodd" d="M9.02584 5.35709C9.09789 5.44547 9.14304 5.53217 9.12743 5.55066C9.11182 5.56915 9.04145 5.51248 8.96989 5.42385C8.89832 5.33523 8.85269 5.24878 8.8683 5.23028C8.88391 5.21179 8.95427 5.26895 9.02584 5.35709Z" fill="#006700"/>
<path fill-rule="evenodd" clip-rule="evenodd" d="M9.08807 5.35156C9.14235 5.45483 9.17045 5.54825 9.15076 5.56002C9.13106 5.57179 9.07078 5.49806 9.01626 5.39479C8.96175 5.29152 8.93389 5.1981 8.95358 5.18609C8.97328 5.17408 9.03356 5.24829 9.08807 5.35156Z" fill="#006700"/>
<path fill-rule="evenodd" clip-rule="evenodd" d="M9.34997 5.75861C9.33196 5.86788 9.29881 5.94786 9.276 5.93729C9.25318 5.92672 9.2491 5.82921 9.26711 5.71994C9.28512 5.61067 9.31827 5.53045 9.34132 5.54126C9.36438 5.55207 9.36798 5.64933 9.34997 5.75861Z" fill="#006700"/>
<path fill-rule="evenodd" clip-rule="evenodd" d="M9.30343 5.74677C9.3068 5.86253 9.29047 5.95355 9.26717 5.95019C9.24387 5.94682 9.22226 5.85004 9.21914 5.73404C9.21602 5.61804 9.23211 5.52702 9.2554 5.53062C9.2787 5.53422 9.30031 5.63101 9.30343 5.74677Z" fill="#006700"/>
<path fill-rule="evenodd" clip-rule="evenodd" d="M9.14595 5.76553C9.2204 5.84166 9.27083 5.92211 9.25834 5.94565C9.24586 5.96918 9.17525 5.92619 9.1008 5.84958C9.02635 5.77297 8.97591 5.69348 8.98816 5.66946C9.00041 5.64544 9.0715 5.68891 9.14595 5.76553Z" fill="#006700"/>
<path fill-rule="evenodd" clip-rule="evenodd" d="M9.18415 5.72702C9.23843 5.82861 9.26749 5.923 9.24923 5.93837C9.23098 5.95374 9.1719 5.88361 9.11763 5.78226C9.06335 5.68091 9.03405 5.58629 9.0523 5.57116C9.07055 5.55603 9.12963 5.62567 9.18415 5.72702Z" fill="#006700"/>
<path fill-rule="evenodd" clip-rule="evenodd" d="M9.24423 5.73321C9.27906 5.84584 9.2901 5.94359 9.26825 5.95151C9.24639 5.95944 9.20124 5.87466 9.16618 5.76179C9.13112 5.64891 9.12031 5.5514 9.14216 5.54348C9.16402 5.53555 9.20917 5.62129 9.24423 5.73321Z" fill="#006700"/>
<path fill-rule="evenodd" clip-rule="evenodd" d="M9.36389 6.20859C9.30602 6.3025 9.24573 6.36254 9.22892 6.34309C9.21211 6.32363 9.24597 6.23165 9.30385 6.13775C9.36173 6.04384 9.42225 5.9838 9.43883 6.0035C9.4554 6.02319 9.42201 6.11493 9.36389 6.20859Z" fill="#006700"/>
<path fill-rule="evenodd" clip-rule="evenodd" d="M9.32379 6.17794C9.28272 6.28649 9.23325 6.3643 9.21332 6.35109C9.19338 6.33789 9.21091 6.23942 9.25198 6.13062C9.29305 6.02183 9.34276 5.94426 9.36246 5.95723C9.38215 5.9702 9.36486 6.06914 9.32379 6.17794Z" fill="#006700"/>
<path fill-rule="evenodd" clip-rule="evenodd" d="M9.17575 6.12804C9.21441 6.23011 9.2293 6.32594 9.20913 6.34251C9.18896 6.35908 9.1414 6.28943 9.10274 6.18736C9.06407 6.08529 9.04942 5.98947 9.06959 5.9729C9.08977 5.95633 9.13732 6.02597 9.17575 6.12804Z" fill="#006700"/>
<path fill-rule="evenodd" clip-rule="evenodd" d="M9.22399 6.10888C9.23456 6.22584 9.22399 6.32503 9.20261 6.33223C9.18124 6.33944 9.15338 6.2489 9.14281 6.13194C9.13225 6.01498 9.14281 5.91579 9.16419 5.90883C9.18556 5.90186 9.21342 5.99192 9.22399 6.10888Z" fill="#006700"/>
<path fill-rule="evenodd" clip-rule="evenodd" d="M9.27743 6.14068C9.26614 6.26076 9.23876 6.35515 9.21643 6.35347C9.19409 6.35179 9.18496 6.25356 9.19625 6.13444C9.20754 6.01532 9.23468 5.91997 9.25725 5.92165C9.27983 5.92333 9.28847 6.02132 9.27743 6.14068Z" fill="#006700"/>
<path fill-rule="evenodd" clip-rule="evenodd" d="M9.24436 6.66487C9.15046 6.74701 9.06448 6.7912 9.05223 6.76358C9.03998 6.73596 9.10675 6.64662 9.20065 6.56448C9.29456 6.48235 9.38053 6.4384 9.39278 6.46602C9.40503 6.49363 9.33827 6.58201 9.24436 6.66487Z" fill="#006700"/>
<path fill-rule="evenodd" clip-rule="evenodd" d="M8.47606 4.90961C8.478 4.91056 8.47972 4.91193 8.48109 4.91362C8.48245 4.9153 8.48343 4.91727 8.48396 4.91937C8.48448 4.92148 8.48454 4.92367 8.48413 4.9258C8.48372 4.92793 8.48285 4.92995 8.48158 4.9317C8.47883 4.93526 8.47496 4.93777 8.47059 4.93882C8.46622 4.93987 8.46162 4.93939 8.45756 4.93747C8.45562 4.93651 8.4539 4.93515 8.45253 4.93346C8.45117 4.93177 8.45019 4.92981 8.44966 4.92771C8.44914 4.9256 8.44908 4.92341 8.44949 4.92128C8.4499 4.91915 8.45077 4.91713 8.45204 4.91537C8.45478 4.91182 8.45866 4.90931 8.46303 4.90826C8.4674 4.90721 8.472 4.90769 8.47606 4.90961Z" fill="#FF0000"/>
<path fill-rule="evenodd" clip-rule="evenodd" d="M8.44072 4.97528C8.44269 4.97621 8.44443 4.97757 8.44582 4.97924C8.44721 4.98092 8.44821 4.98288 8.44876 4.98499C8.44931 4.98709 8.44939 4.98929 8.449 4.99143C8.4486 4.99358 8.44775 4.9956 8.44648 4.99738C8.44374 5.00093 8.43986 5.00344 8.43549 5.00449C8.43112 5.00554 8.42653 5.00506 8.42247 5.00314C8.42053 5.00218 8.41882 5.00081 8.41745 4.99913C8.41609 4.99745 8.4151 4.9955 8.41455 4.99341C8.41401 4.99131 8.41392 4.98913 8.41429 4.98699C8.41466 4.98486 8.41548 4.98283 8.4167 4.98105C8.41945 4.97749 8.42333 4.97498 8.4277 4.97393C8.43206 4.97288 8.43666 4.97336 8.44072 4.97528Z" fill="#FF0000"/>
<path fill-rule="evenodd" clip-rule="evenodd" d="M9.21219 6.61676C9.13173 6.72147 9.05224 6.78896 9.03471 6.76734C9.01717 6.74573 9.06809 6.64294 9.1483 6.53823C9.22852 6.43352 9.30825 6.36579 9.32578 6.38764C9.34331 6.4095 9.29264 6.51181 9.21219 6.61676Z" fill="#006700"/>
<path fill-rule="evenodd" clip-rule="evenodd" d="M9.06127 6.50664C9.07087 6.63344 9.05622 6.74488 9.02885 6.75545C9.00147 6.76601 8.97121 6.67211 8.96184 6.5453C8.95247 6.4185 8.96688 6.30706 8.99426 6.29625C9.02164 6.28545 9.0519 6.37983 9.06127 6.50664Z" fill="#006700"/>
<path fill-rule="evenodd" clip-rule="evenodd" d="M9.12255 6.50356C9.09638 6.63661 9.05363 6.74372 9.02649 6.74228C8.99935 6.74084 8.99911 6.63205 9.02505 6.49923C9.05099 6.36642 9.09373 6.25907 9.12111 6.26051C9.14849 6.26195 9.14849 6.37075 9.12255 6.50356Z" fill="#006700"/>
<path fill-rule="evenodd" clip-rule="evenodd" d="M9.17069 6.55789C9.12002 6.68542 9.05926 6.78028 9.03524 6.77019C9.01123 6.76011 9.0326 6.64843 9.08327 6.52114C9.13395 6.39386 9.19471 6.29875 9.21897 6.30884C9.24322 6.31893 9.22161 6.43012 9.17069 6.55789Z" fill="#006700"/>
<path fill-rule="evenodd" clip-rule="evenodd" d="M8.93725 7.06427C8.80252 7.08709 8.69709 7.0782 8.69925 7.04482C8.70141 7.01144 8.81453 6.96581 8.94902 6.94323C9.08351 6.92066 9.19039 6.9293 9.18702 6.96269C9.18366 6.99607 9.07199 7.0417 8.93725 7.06427Z" fill="#006700"/>
<path fill-rule="evenodd" clip-rule="evenodd" d="M9.09986 6.81303C9.09598 6.81562 9.09142 6.81703 9.08675 6.81707C9.08208 6.81712 9.0775 6.8158 9.07357 6.81329C9.06963 6.81077 9.06652 6.80716 9.06461 6.8029C9.06269 6.79864 9.06206 6.79391 9.0628 6.7893C9.06353 6.78468 9.06559 6.78038 9.06873 6.77693C9.07186 6.77347 9.07594 6.771 9.08046 6.76982C9.08498 6.76864 9.08975 6.76881 9.09417 6.7703C9.0986 6.77179 9.1025 6.77453 9.10539 6.7782C9.10743 6.7808 9.10892 6.7838 9.10976 6.78701C9.11059 6.79021 9.11075 6.79355 9.11024 6.79682C9.10972 6.80009 9.10853 6.80322 9.10674 6.80601C9.10496 6.8088 9.10262 6.81119 9.09986 6.81303Z" fill="#FF0000"/>
<path fill-rule="evenodd" clip-rule="evenodd" d="M9.02287 6.73333C9.01761 6.73742 9.01094 6.73926 9.00433 6.73845C8.99771 6.73764 8.99169 6.73424 8.98757 6.729C8.98552 6.7264 8.98403 6.72341 8.9832 6.7202C8.98236 6.717 8.9822 6.71366 8.98272 6.71038C8.98324 6.70711 8.98443 6.70399 8.98621 6.7012C8.988 6.69841 8.99034 6.69602 8.99309 6.69418C8.99838 6.69015 9.00503 6.68835 9.01162 6.68915C9.01822 6.68996 9.02424 6.69332 9.0284 6.6985C9.03044 6.70111 9.03193 6.7041 9.03277 6.70731C9.0336 6.71051 9.03377 6.71385 9.03325 6.71712C9.03273 6.72039 9.03154 6.72352 9.02975 6.72631C9.02797 6.7291 9.02563 6.73149 9.02287 6.73333Z" fill="#FF0000"/>
<path fill-rule="evenodd" clip-rule="evenodd" d="M8.93352 6.99938C8.79999 7.05174 8.68712 7.06879 8.68183 7.03781C8.67655 7.00683 8.7803 6.93934 8.91407 6.88698C9.04784 6.83463 9.16048 6.81734 9.166 6.84856C9.17153 6.87978 9.0673 6.94703 8.93352 6.99938Z" fill="#006700"/>
<path fill-rule="evenodd" clip-rule="evenodd" d="M8.84769 6.80683C8.78885 6.93292 8.71512 7.03042 8.68294 7.02418C8.65076 7.01793 8.67213 6.91106 8.73097 6.78402C8.78981 6.65697 8.8633 6.56042 8.89549 6.56643C8.92767 6.57243 8.90629 6.6805 8.84769 6.80683Z" fill="#006700"/>
<path fill-rule="evenodd" clip-rule="evenodd" d="M8.90754 6.83938C8.81147 6.95033 8.71276 7.0267 8.68755 7.00989C8.66233 6.99308 8.72021 6.88981 8.81651 6.77789C8.91282 6.66598 9.01105 6.59033 9.03626 6.60738C9.06148 6.62443 9.00384 6.72818 8.90754 6.83938Z" fill="#006700"/>
<path fill-rule="evenodd" clip-rule="evenodd" d="M8.92492 6.91823C8.80748 7.00925 8.69797 7.06401 8.68019 7.03999C8.66242 7.01598 8.74288 6.92279 8.86032 6.83153C8.97776 6.74027 9.08703 6.68575 9.1048 6.70977C9.12257 6.73379 9.04212 6.82793 8.92492 6.91823Z" fill="#006700"/>
<path fill-rule="evenodd" clip-rule="evenodd" d="M8.53541 7.28818C8.39707 7.2901 8.28492 7.25888 8.28516 7.21829C8.2854 7.1777 8.39755 7.14312 8.53589 7.1412C8.67422 7.13928 8.78638 7.17026 8.78638 7.21085C8.78638 7.25143 8.67398 7.28602 8.53541 7.28818Z" fill="#006700"/>
<path fill-rule="evenodd" clip-rule="evenodd" d="M8.50204 7.05853C8.41438 7.17404 8.31928 7.2473 8.28998 7.22208C8.26068 7.19686 8.30751 7.08302 8.39517 6.9675C8.48283 6.85199 8.57793 6.77874 8.60747 6.80371C8.63701 6.82869 8.5897 6.94253 8.50204 7.05853Z" fill="#006700"/>
<path fill-rule="evenodd" clip-rule="evenodd" d="M8.53718 7.17561C8.4087 7.23229 8.29294 7.24766 8.27877 7.21044C8.2646 7.17321 8.35778 7.0966 8.48651 7.04016C8.61524 6.98372 8.73076 6.96811 8.74493 7.00534C8.75909 7.04256 8.66591 7.11917 8.53718 7.17561Z" fill="#006700"/>
<path fill-rule="evenodd" clip-rule="evenodd" d="M8.60702 4.95024C8.67066 5.00884 8.70909 5.0636 8.69276 5.07273C8.67643 5.08185 8.61158 5.04175 8.54866 4.98315C8.48574 4.92455 8.44635 4.86979 8.46268 4.86066C8.47901 4.85154 8.54314 4.89188 8.60702 4.95024Z" fill="#006700"/>
<path fill-rule="evenodd" clip-rule="evenodd" d="M8.52913 5.01593C8.61535 5.02746 8.68788 5.05147 8.69124 5.06972C8.6946 5.08798 8.62736 5.09374 8.54114 5.08197C8.45492 5.0702 8.38239 5.04643 8.37903 5.02818C8.37566 5.00992 8.44291 5.00464 8.52913 5.01593Z" fill="#006700"/>
<path fill-rule="evenodd" clip-rule="evenodd" d="M8.55992 4.97473C8.64109 5.01676 8.69993 5.06263 8.69129 5.07704C8.68264 5.09145 8.60987 5.06888 8.5287 5.02685C8.44752 4.98482 8.38868 4.93895 8.39733 4.92454C8.40597 4.91013 8.47874 4.93247 8.55992 4.97473Z" fill="#006700"/>
<path fill-rule="evenodd" clip-rule="evenodd" d="M9.33705 5.94196C9.33677 5.94664 9.33513 5.95113 9.33232 5.95489C9.32952 5.95864 9.32568 5.9615 9.32127 5.9631C9.31687 5.96469 9.31209 5.96497 9.30753 5.96389C9.30297 5.9628 9.29883 5.96041 9.29561 5.957C9.29239 5.95359 9.29025 5.94932 9.28943 5.9447C9.28861 5.94009 9.28917 5.93533 9.29102 5.93103C9.29287 5.92672 9.29594 5.92305 9.29985 5.92047C9.30377 5.91789 9.30835 5.91651 9.31304 5.9165C9.31631 5.9165 9.31956 5.91716 9.32257 5.91846C9.32558 5.91976 9.3283 5.92165 9.33055 5.92404C9.3328 5.92642 9.33454 5.92925 9.33565 5.93233C9.33677 5.93541 9.33725 5.93869 9.33705 5.94196Z" fill="#FF0000"/>
<path fill-rule="evenodd" clip-rule="evenodd" d="M9.22745 5.95357C9.22745 5.96016 9.22483 5.96648 9.22017 5.97114C9.21551 5.97581 9.20918 5.97842 9.20259 5.97842C9.196 5.97842 9.18968 5.97581 9.18502 5.97114C9.18035 5.96648 9.17773 5.96016 9.17773 5.95357C9.17773 5.94698 9.18035 5.94065 9.18502 5.93599C9.18968 5.93133 9.196 5.92871 9.20259 5.92871C9.20918 5.92871 9.21551 5.93133 9.22017 5.93599C9.22483 5.94065 9.22745 5.94698 9.22745 5.95357Z" fill="#FF0000"/>
<path fill-rule="evenodd" clip-rule="evenodd" d="M9.27511 6.39489C9.27183 6.40065 9.26641 6.40489 9.26003 6.40669C9.25365 6.40848 9.24681 6.4077 9.24101 6.40449C9.23811 6.40291 9.23557 6.40074 9.23355 6.39813C9.23153 6.39552 9.23006 6.39253 9.22925 6.38932C9.22844 6.38612 9.2283 6.38279 9.22883 6.37953C9.22937 6.37627 9.23057 6.37316 9.23236 6.37039C9.23386 6.36741 9.23596 6.36478 9.23853 6.36266C9.2411 6.36054 9.24409 6.35898 9.2473 6.35808C9.2505 6.35717 9.25386 6.35695 9.25716 6.35741C9.26046 6.35788 9.26363 6.35903 9.26646 6.36078C9.26936 6.36237 9.2719 6.36453 9.27392 6.36714C9.27594 6.36975 9.27741 6.37275 9.27822 6.37595C9.27903 6.37915 9.27917 6.38248 9.27864 6.38574C9.2781 6.389 9.2769 6.39211 9.27511 6.39489Z" fill="#FF0000"/>
<path fill-rule="evenodd" clip-rule="evenodd" d="M9.17366 6.35047C9.17038 6.35623 9.16497 6.36048 9.15858 6.36227C9.1522 6.36407 9.14536 6.36328 9.13956 6.36008C9.13663 6.3585 9.13406 6.35632 9.13201 6.35369C9.12997 6.35106 9.12849 6.34804 9.12768 6.34481C9.12687 6.34158 9.12673 6.33822 9.12729 6.33493C9.12785 6.33165 9.12908 6.32852 9.13091 6.32573C9.13419 6.31997 9.13961 6.31573 9.14599 6.31393C9.15238 6.31213 9.15921 6.31292 9.16502 6.31613C9.16795 6.31771 9.17052 6.31989 9.17256 6.32251C9.17461 6.32514 9.17608 6.32817 9.1769 6.3314C9.17771 6.33463 9.17784 6.33799 9.17728 6.34127C9.17673 6.34456 9.17549 6.34769 9.17366 6.35047Z" fill="#FF0000"/>
<path fill-rule="evenodd" clip-rule="evenodd" d="M8.73 5.03939C8.73166 5.04077 8.733 5.04249 8.73391 5.04444C8.73483 5.04639 8.73531 5.04852 8.73531 5.05068C8.73531 5.05284 8.73483 5.05497 8.73391 5.05692C8.733 5.05887 8.73166 5.06059 8.73 5.06197C8.72626 5.0648 8.72163 5.06619 8.71695 5.06588C8.71228 5.06557 8.70787 5.06359 8.70454 5.06029C8.70287 5.05889 8.70153 5.05714 8.70061 5.05517C8.6997 5.0532 8.69922 5.05105 8.69922 5.04888C8.69922 5.0467 8.6997 5.04456 8.70061 5.04258C8.70153 5.04061 8.70287 5.03887 8.70454 5.03747C8.70832 5.03472 8.71296 5.0334 8.71762 5.03375C8.72229 5.0341 8.72667 5.0361 8.73 5.03939Z" fill="#FF0000"/>
<path fill-rule="evenodd" clip-rule="evenodd" d="M8.67693 5.09302C8.67856 5.09442 8.67986 5.09615 8.68076 5.0981C8.68165 5.10005 8.68211 5.10217 8.68211 5.10431C8.68211 5.10646 8.68165 5.10857 8.68076 5.11052C8.67986 5.11247 8.67856 5.1142 8.67693 5.1156C8.67318 5.1185 8.6685 5.11993 8.66377 5.11962C8.65903 5.11931 8.65458 5.11728 8.65124 5.11392C8.64964 5.11243 8.64839 5.11062 8.64757 5.1086C8.64675 5.10658 8.64639 5.10441 8.6465 5.10223C8.64662 5.10005 8.64721 5.09793 8.64823 5.09601C8.64926 5.09408 8.65069 5.09241 8.65244 5.0911C8.65612 5.08856 8.66056 5.08736 8.66503 5.08771C8.66949 5.08806 8.67369 5.08993 8.67693 5.09302Z" fill="#FF0000"/>
<path fill-rule="evenodd" clip-rule="evenodd" d="M7.9668 7.32461V7.41827C8.15052 7.40915 8.06286 7.54244 8.09336 7.61809L8.13395 7.5679L8.19015 7.61761C8.18607 7.53019 8.2401 7.30804 7.9668 7.32461Z" fill="#5387F4"/>
<path fill-rule="evenodd" clip-rule="evenodd" d="M8.03161 7.32852V7.42218C7.84789 7.41305 7.93675 7.54634 7.90505 7.622L7.86446 7.5718L7.80826 7.62151C7.81283 7.5341 7.75831 7.31194 8.03161 7.32852Z" fill="#5387F4"/>
<path fill-rule="evenodd" clip-rule="evenodd" d="M8.36159 7.17786C8.3264 7.25132 8.28536 7.32184 8.23886 7.38872C8.21485 7.41538 8.17834 7.49247 8.01431 7.42114C8.00403 7.41825 7.99471 7.41266 7.98733 7.40495C7.97994 7.39724 7.97475 7.38769 7.9723 7.3773C7.96985 7.36691 7.97023 7.35605 7.97339 7.34585C7.97655 7.33566 7.98239 7.32649 7.99029 7.31931C7.99538 7.3311 8.00453 7.34069 8.01607 7.34632C8.02761 7.35196 8.04078 7.35328 8.05322 7.35005C8.09813 7.33781 8.18555 7.06666 8.23286 7.05081C8.28473 7.03328 8.382 7.1536 8.36062 7.17786H8.36159Z" fill="#5387F4"/>
<path fill-rule="evenodd" clip-rule="evenodd" d="M8.36213 7.17786C8.33115 7.1572 8.31698 7.14135 8.29008 7.17281C8.18465 7.30154 8.1921 7.46461 8.01414 7.42114C7.93056 7.40073 7.98748 7.31763 7.99012 7.31931C7.99521 7.3311 8.00435 7.34069 8.0159 7.34632C8.02744 7.35196 8.04061 7.35328 8.05304 7.35005C8.09795 7.33781 8.18537 7.06666 8.23269 7.05081C8.28456 7.03328 8.38183 7.1536 8.36045 7.17786H8.36213Z" fill="#5387F4"/>
<path fill-rule="evenodd" clip-rule="evenodd" d="M7.66418 7.1781C7.67402 7.211 7.76192 7.35606 7.78666 7.38896C7.81068 7.41562 7.84742 7.49271 8.01145 7.42139C8.02173 7.41849 8.03105 7.4129 8.03843 7.40519C8.04582 7.39749 8.05101 7.38794 8.05346 7.37755C8.05591 7.36715 8.05554 7.3563 8.05237 7.3461C8.04921 7.3359 8.04337 7.32674 8.03547 7.31956C8.03034 7.33132 8.02119 7.34087 8.00966 7.3465C7.99813 7.35213 7.98498 7.35348 7.97255 7.3503C7.92739 7.33805 7.84022 7.06691 7.7929 7.05105C7.74079 7.03352 7.64376 7.15384 7.66514 7.1781H7.66418Z" fill="#5387F4"/>
<path fill-rule="evenodd" clip-rule="evenodd" d="M7.66346 7.17786C7.69444 7.1572 7.70861 7.14135 7.7355 7.17281C7.84094 7.30154 7.83349 7.46461 8.01145 7.42114C8.09503 7.40073 8.03811 7.31763 8.03547 7.31931C8.03034 7.33107 8.02119 7.34062 8.00966 7.34626C7.99813 7.35189 7.98498 7.35323 7.97255 7.35005C7.92739 7.33781 7.84022 7.06666 7.7929 7.05081C7.74079 7.03328 7.64376 7.1536 7.66514 7.17786H7.66346Z" fill="#5387F4"/>
<path fill-rule="evenodd" clip-rule="evenodd" d="M7.96211 7.31689L7.95898 7.43698H8.05049L8.06153 7.31689H7.96211Z" fill="#5387F4"/>
<path fill-rule="evenodd" clip-rule="evenodd" d="M7.98438 6.36475C7.98438 6.36475 8.17651 6.52734 8.17651 6.64406C8.17266 6.69065 8.13424 6.7382 8.06435 6.7723C8.09088 6.73293 8.10371 6.68592 8.10085 6.63853C8.09701 6.55952 7.98774 6.46417 7.98774 6.46417L7.98438 6.36475Z" fill="#5387F4"/>
<path fill-rule="evenodd" clip-rule="evenodd" d="M8.05439 5.71476L8.05559 4.75675L8.02268 4.75171L8.02148 5.70972L8.05439 5.71476Z" fill="#FFD200"/>
<path fill-rule="evenodd" clip-rule="evenodd" d="M8.04043 4.5L8.08846 4.72167L8.03827 4.787L7.99023 4.70246L8.04043 4.5Z" fill="#FFD200"/>
<path fill-rule="evenodd" clip-rule="evenodd" d="M8.02016 4.80849L8.05978 4.80249C8.08248 4.84419 8.10238 4.88736 8.11934 4.9317C8.14648 5.01479 8.17386 5.14929 8.1986 5.45501C8.12415 5.44901 7.85156 5.48431 7.85156 5.48431C7.85156 5.48431 7.8554 5.11638 7.95051 4.98477C7.99518 4.92882 8.02496 4.82002 8.02016 4.80849Z" fill="#5387F4"/>
<path fill-rule="evenodd" clip-rule="evenodd" d="M8.02016 4.80849L8.05978 4.80249C8.08248 4.84419 8.10238 4.88736 8.11934 4.9317C8.14648 5.01479 8.04009 5.15529 8.06483 5.46006C7.99038 5.45405 7.85156 5.48407 7.85156 5.48407C7.85156 5.48407 7.8554 5.11614 7.95051 4.98453C7.99518 4.92882 8.02496 4.82002 8.02016 4.80849Z" fill="white"/>
<path fill-rule="evenodd" clip-rule="evenodd" d="M8.02016 4.80849L8.05978 4.80249C8.05978 4.80249 8.04994 4.95547 8.01511 5.03185C7.98029 5.10822 7.9606 5.47231 7.9654 5.47231C7.9702 5.47231 7.85156 5.48431 7.85156 5.48431C7.85156 5.48431 7.8554 5.11638 7.95051 4.98477C7.99518 4.92882 8.02496 4.82002 8.02016 4.80849Z" fill="#5387F4"/>
<path fill-rule="evenodd" clip-rule="evenodd" d="M8.05436 6.37012C8.05436 6.37012 7.85742 6.52838 7.85742 6.64198C7.8615 6.68737 7.90113 6.73348 7.97294 6.76687C7.9457 6.72914 7.93238 6.68314 7.93523 6.6367C7.93932 6.55961 8.05171 6.4669 8.05171 6.4669L8.05436 6.37012Z" fill="#5387F4"/>
<path fill-rule="evenodd" clip-rule="evenodd" d="M7.76406 5.59991L7.08008 5.10205C7.08008 5.10205 7.25732 6.13235 7.65023 6.34682C7.65023 6.34682 7.99222 6.45969 7.99222 6.34682L7.76406 5.59991Z" fill="#5387F4"/>
<path fill-rule="evenodd" clip-rule="evenodd" d="M7.7649 5.59997L7.30859 5.26807C7.30859 5.26807 7.53651 6.34688 7.99258 6.34688L7.7649 5.59997Z" fill="white"/>
<path fill-rule="evenodd" clip-rule="evenodd" d="M7.76502 5.60004L7.53711 5.43408C7.53711 5.43408 7.76502 6.3467 7.99342 6.3467L7.76502 5.60004Z" fill="#5387F4"/>
<path fill-rule="evenodd" clip-rule="evenodd" d="M7.76493 5.57151L6.94477 4.99512L6.91211 5.01985L7.73227 5.59625L7.76493 5.57151Z" fill="#FFD200"/>
<path fill-rule="evenodd" clip-rule="evenodd" d="M6.71289 4.85303L6.94417 4.94621L6.95666 5.02763L6.8421 5.01802L6.71289 4.85303Z" fill="#FFD200"/>
<path fill-rule="evenodd" clip-rule="evenodd" d="M7.65078 5.80764L6.9668 5.55859C6.9668 5.55859 7.08063 6.59562 7.65078 6.59562C7.99278 6.59562 8.10709 6.26371 8.10709 6.26371L7.65078 5.80764Z" fill="#5387F4"/>
<path fill-rule="evenodd" clip-rule="evenodd" d="M7.64967 5.80755L7.19336 5.6416C7.19336 5.80755 7.30744 6.51267 7.64967 6.51267C7.87758 6.51267 8.10598 6.26362 8.10598 6.26362L7.64967 5.80755Z" fill="white"/>
<path fill-rule="evenodd" clip-rule="evenodd" d="M7.65198 5.80771L7.42383 5.72461C7.42383 6.09782 7.53791 6.42973 7.76582 6.42973C7.8799 6.42973 8.10805 6.26378 8.10805 6.26378L7.65198 5.80771Z" fill="#5387F4"/>
<path fill-rule="evenodd" clip-rule="evenodd" d="M7.879 5.86007L6.85878 5.4895L6.83789 5.52024L7.85786 5.89057L7.879 5.86007Z" fill="#FFD200"/>
<path fill-rule="evenodd" clip-rule="evenodd" d="M6.57812 5.40527L6.83702 5.4437L6.88289 5.51863L6.76954 5.53448L6.57812 5.40527Z" fill="#FFD200"/>
<path fill-rule="evenodd" clip-rule="evenodd" d="M8.28047 5.59967L8.95485 5.10181C8.95485 5.10181 8.78025 6.13235 8.39287 6.34657C8.39287 6.34657 8.05664 6.45945 8.05664 6.34657L8.28143 5.60039L8.28047 5.59967Z" fill="#5387F4"/>
<path fill-rule="evenodd" clip-rule="evenodd" d="M8.28143 5.59973L8.73102 5.26782C8.73102 5.26782 8.50623 6.34664 8.05664 6.34664L8.28143 5.60045V5.59973Z" fill="white"/>
<path fill-rule="evenodd" clip-rule="evenodd" d="M8.28143 5.59979L8.50623 5.43384C8.50623 5.43384 8.28143 6.34646 8.05664 6.34646L8.28143 5.60027V5.59979Z" fill="#5387F4"/>
<path fill-rule="evenodd" clip-rule="evenodd" d="M8.28125 5.57102L9.08988 4.99463L9.12206 5.01937L8.31343 5.59576L8.28125 5.57102Z" fill="#FFD200"/>
<path fill-rule="evenodd" clip-rule="evenodd" d="M9.31829 4.85303L9.09061 4.94621L9.07812 5.02787L9.191 5.01802L9.31829 4.85303Z" fill="#FFD200"/>
<path fill-rule="evenodd" clip-rule="evenodd" d="M8.39295 5.8074L9.06732 5.55859C9.06732 5.55859 8.95493 6.59562 8.39295 6.59562C8.05672 6.59562 7.94336 6.26371 7.94336 6.26371L8.39295 5.8074Z" fill="#5387F4"/>
<path fill-rule="evenodd" clip-rule="evenodd" d="M8.39295 5.80755L8.84253 5.6416C8.84253 5.80755 8.73013 6.51267 8.39295 6.51267C8.16815 6.51267 7.94336 6.26386 7.94336 6.26386L8.39295 5.80755Z" fill="white"/>
<path fill-rule="evenodd" clip-rule="evenodd" d="M8.39298 5.80747L8.61777 5.72461C8.61777 6.09758 8.50537 6.42973 8.28154 6.42973C8.16914 6.42973 7.94531 6.26378 7.94531 6.26378L8.39298 5.80747Z" fill="#5387F4"/>
<path fill-rule="evenodd" clip-rule="evenodd" d="M8.16797 5.85983L9.17377 5.48926L9.19443 5.52L8.18886 5.89057L8.16797 5.85983Z" fill="#FFD200"/>
<path fill-rule="evenodd" clip-rule="evenodd" d="M9.45059 5.40527L9.19554 5.4437L9.15039 5.51863L9.26207 5.53448L9.45059 5.40527Z" fill="#FFD200"/>
<path fill-rule="evenodd" clip-rule="evenodd" d="M7.17188 6.48338L8.02854 5.02271L8.88544 6.48338H7.17188Z" fill="#FFD200"/>
<path fill-rule="evenodd" clip-rule="evenodd" d="M7.25977 6.44193L8.03165 5.11719L8.80378 6.44097H7.25977V6.44193Z" fill="#00FFFF"/>
<path fill-rule="evenodd" clip-rule="evenodd" d="M8.1636 5.80604C8.16446 5.83186 8.15759 5.85735 8.14388 5.87923C8.13016 5.90112 8.11022 5.91842 8.08661 5.9289C8.063 5.93938 8.0368 5.94257 8.01137 5.93807C7.98593 5.93356 7.96242 5.92156 7.94385 5.90361C7.92528 5.88566 7.91249 5.86257 7.90712 5.8373C7.90176 5.81203 7.90406 5.78574 7.91374 5.76179C7.92341 5.73784 7.94002 5.71732 7.96143 5.70287C7.98284 5.68842 8.00808 5.68069 8.03391 5.68068C8.06772 5.68016 8.10035 5.69307 8.12466 5.71657C8.14897 5.74007 8.16297 5.77224 8.1636 5.80604Z" fill="#FFD200"/>
<path fill-rule="evenodd" clip-rule="evenodd" d="M8.03185 5.67635C7.90857 5.67542 7.78608 5.69606 7.66992 5.73735L7.69394 5.69628L7.71795 5.65474L7.74197 5.61343L7.76599 5.57212L7.79 5.53057L7.81402 5.48926L7.84068 5.44699C7.8767 5.41577 7.95403 5.40112 8.03113 5.40112C8.10822 5.40112 8.18555 5.41673 8.22326 5.44916L8.24727 5.49046L8.27129 5.53177L8.29531 5.57332L8.31932 5.61463L8.34334 5.65594L8.36736 5.69748L8.39137 5.73855C8.27592 5.69759 8.15435 5.67656 8.03185 5.67635Z" fill="#C453D7"/>
<path fill-rule="evenodd" clip-rule="evenodd" d="M8.03103 5.64557C7.91697 5.64813 7.80361 5.66426 7.69336 5.6936L7.71738 5.65205L7.74139 5.61074L7.76541 5.56943L7.78942 5.52789L7.81344 5.48658L7.84034 5.44431C7.87636 5.41309 7.95346 5.39844 8.03055 5.39844C8.10764 5.39844 8.18497 5.41405 8.22268 5.44647L8.2467 5.48778L8.27071 5.52909L8.29473 5.57063L8.31875 5.61194L8.34276 5.65325L8.36678 5.6948C8.25624 5.66649 8.14292 5.65038 8.02887 5.64677L8.03103 5.64557Z" fill="#5000C1"/>
<path fill-rule="evenodd" clip-rule="evenodd" d="M8.03096 5.61342C7.92599 5.61614 7.82149 5.62844 7.71875 5.65016L7.74277 5.61245L7.76678 5.57139L7.7908 5.52984L7.81482 5.48853L7.84147 5.44626C7.8775 5.41504 7.95483 5.40039 8.03192 5.40039C8.10902 5.40039 8.18635 5.41576 8.22405 5.44842L8.24807 5.48973L8.27209 5.53104L8.2961 5.57259L8.32012 5.61366L8.34414 5.6552C8.24156 5.63003 8.13655 5.61601 8.03096 5.61342Z" fill="#0053D7"/>
<path fill-rule="evenodd" clip-rule="evenodd" d="M8.03038 5.57907C7.93332 5.57842 7.83653 5.58963 7.74219 5.61245L7.7662 5.57139L7.79022 5.52984L7.81424 5.48853L7.8409 5.44626C7.87692 5.41504 7.95425 5.40039 8.03134 5.40039C8.10844 5.40039 8.18577 5.41576 8.22348 5.44842L8.24749 5.48973L8.27151 5.53104L8.29552 5.57259L8.31954 5.61366C8.22456 5.59215 8.12753 5.58096 8.03014 5.58027L8.03038 5.57907Z" fill="#009F9F"/>
<path fill-rule="evenodd" clip-rule="evenodd" d="M8.03176 5.54952C7.94323 5.54838 7.85479 5.55546 7.76758 5.57066L7.79159 5.52935L7.81561 5.48804L7.84227 5.44577C7.87829 5.41455 7.95563 5.3999 8.03272 5.3999C8.10981 5.3999 8.18714 5.41527 8.22485 5.44649L8.24887 5.48804L8.27288 5.52935L8.2969 5.57066C8.20928 5.55612 8.12058 5.54905 8.03176 5.54952Z" fill="#FFFF00"/>
<path fill-rule="evenodd" clip-rule="evenodd" d="M8.02923 5.51183C7.94879 5.5105 7.8684 5.51653 7.78906 5.52984L7.81308 5.48853L7.83974 5.44626C7.87576 5.41504 7.95309 5.40039 8.03019 5.40039C8.10728 5.40039 8.18461 5.41576 8.22232 5.44698L8.24633 5.48853L8.27035 5.52984C8.19068 5.51657 8.10998 5.51054 8.02923 5.51183Z" fill="#FF5500"/>
<path fill-rule="evenodd" clip-rule="evenodd" d="M8.0354 5.4674C7.96122 5.46686 7.88719 5.47394 7.81445 5.48853L7.84111 5.4465C7.87714 5.41504 7.95423 5.40039 8.03132 5.40039C8.10841 5.40039 8.18575 5.416 8.22345 5.44842L8.24747 5.48973C8.24747 5.48973 8.18959 5.4674 8.0354 5.4674Z" fill="#FF0B00"/>
<path fill-rule="evenodd" clip-rule="evenodd" d="M7.25977 6.44208L7.47711 6.06982H8.58643L8.80378 6.44208H7.25977Z" fill="#4363FF"/>
<path fill-rule="evenodd" clip-rule="evenodd" d="M7.98828 5.78777C7.98828 5.78777 7.9902 5.78345 7.99332 5.77985C8.00022 5.77581 8.00778 5.77304 8.01566 5.77168C8.02311 5.77037 8.03069 5.76997 8.03823 5.77048C8.0488 5.77048 8.04952 5.77456 8.05553 5.77985C8.05984 5.78489 8.06385 5.79018 8.06753 5.7957C8.07082 5.79939 8.07372 5.80342 8.07618 5.80771C8.07858 5.81179 8.08122 5.81779 8.08483 5.82356C8.08684 5.82952 8.08797 5.83575 8.08819 5.84205C8.08813 5.84758 8.08699 5.85305 8.08483 5.85814C8.07795 5.85967 8.07081 5.85967 8.06393 5.85814C8.05841 5.8543 8.04904 5.8567 8.04496 5.85286C8.03511 5.85286 8.03271 5.84277 8.02791 5.83821C8.0231 5.83364 8.02455 5.83124 8.02094 5.82764C8.01734 5.82404 8.0147 5.82091 8.0123 5.81563C8.01446 5.80987 8.0183 5.80867 8.02431 5.80626C8.0261 5.80485 8.02753 5.80302 8.02845 5.80092C8.02937 5.79883 8.02976 5.79654 8.02959 5.79426C8.02839 5.78681 8.02479 5.78753 8.01566 5.78633C8.00653 5.78513 7.99885 5.78729 7.98828 5.78777Z" fill="#FF0000"/>
<path fill-rule="evenodd" clip-rule="evenodd" d="M8.25781 6.35907C8.28803 6.34663 8.31381 6.32537 8.33178 6.29807C8.3558 6.25628 8.34067 6.19312 8.3558 6.1912C8.37093 6.18928 8.39206 6.26037 8.43553 6.28102C8.479 6.30168 8.54577 6.32905 8.54577 6.32905L8.25781 6.35907Z" fill="#6DA700"/>
<path fill-rule="evenodd" clip-rule="evenodd" d="M8.23047 6.36249C8.2606 6.35 8.28629 6.32875 8.3042 6.30149C8.32821 6.2597 8.31308 6.19654 8.32821 6.19462C8.34334 6.1927 8.36472 6.26403 8.40795 6.28468C8.45118 6.30533 8.51818 6.33271 8.51818 6.33271L8.23047 6.36249Z" fill="#6DA700"/>
<path fill-rule="evenodd" clip-rule="evenodd" d="M8.1582 6.37685C8.19377 6.36302 8.22461 6.33926 8.24706 6.3084C8.27684 6.26157 8.25955 6.19144 8.2778 6.18832C8.29606 6.1852 8.31959 6.26493 8.37051 6.28751C8.42142 6.31008 8.50068 6.3389 8.50068 6.3389L8.1582 6.37685Z" fill="#6DA700"/>
<path fill-rule="evenodd" clip-rule="evenodd" d="M8.0957 6.39025C8.13522 6.37409 8.16906 6.3466 8.19297 6.31124C8.22539 6.25696 8.20522 6.17554 8.22539 6.17314C8.24556 6.17074 8.27342 6.26248 8.32962 6.28914C8.38582 6.3158 8.47372 6.34966 8.47372 6.34966L8.0957 6.39025Z" fill="#6DA700"/>
<path fill-rule="evenodd" clip-rule="evenodd" d="M8.01562 6.40157C8.06023 6.38365 8.09857 6.353 8.12586 6.31343C8.16285 6.25291 8.14027 6.16237 8.16333 6.15948C8.18638 6.1566 8.2164 6.25891 8.28053 6.28821C8.34465 6.31751 8.44384 6.35546 8.44384 6.35546L8.01562 6.40157Z" fill="#6DA700"/>
<path fill-rule="evenodd" clip-rule="evenodd" d="M7.94727 6.40938C7.99507 6.38918 8.03561 6.35492 8.0635 6.31115C8.10193 6.24319 8.07647 6.14112 8.10073 6.13824C8.12499 6.13535 8.15885 6.25039 8.22754 6.28402C8.29622 6.31764 8.40262 6.36087 8.40262 6.36087L7.94727 6.40938Z" fill="#6DA700"/>
<path fill-rule="evenodd" clip-rule="evenodd" d="M7.84766 6.37917C7.90222 6.36407 7.95158 6.33425 7.99031 6.29296C8.04099 6.23051 8.02298 6.1306 8.05107 6.1294C8.07917 6.1282 8.10511 6.24132 8.1798 6.27855C8.25449 6.31577 8.37193 6.365 8.37193 6.365L7.84766 6.37917Z" fill="#6DA700"/>
<path fill-rule="evenodd" clip-rule="evenodd" d="M7.79883 6.38113C7.85339 6.36603 7.90275 6.3362 7.94149 6.29491C7.9924 6.23247 7.97415 6.13256 8.00225 6.13136C8.03035 6.13016 8.05652 6.24327 8.13097 6.2805C8.20543 6.31772 8.3219 6.36696 8.3219 6.36696L7.79883 6.38113Z" fill="#6DA700"/>
<path fill-rule="evenodd" clip-rule="evenodd" d="M7.66602 6.39458C7.66602 6.39458 7.77529 6.36792 7.83653 6.29852C7.89777 6.22911 7.8776 6.11815 7.91098 6.11695C7.94437 6.11575 7.97391 6.24088 8.06181 6.28194C8.1497 6.32301 8.28732 6.37801 8.28732 6.37801L7.66602 6.39458Z" fill="#6DA700"/>
<path fill-rule="evenodd" clip-rule="evenodd" d="M7.55273 6.40678C7.55273 6.40678 7.67282 6.3758 7.7403 6.2951C7.80779 6.21441 7.78401 6.08568 7.82076 6.084C7.8575 6.08232 7.89281 6.2281 7.98887 6.27613C8.08494 6.32416 8.23936 6.38733 8.23936 6.38733L7.55273 6.40678Z" fill="#6DA700"/>
<path fill-rule="evenodd" clip-rule="evenodd" d="M7.40625 6.41667C7.40625 6.41667 7.54266 6.38233 7.61879 6.29251C7.69493 6.20269 7.66875 6.05931 7.71054 6.05763C7.75233 6.05595 7.79003 6.2183 7.90051 6.27162C8.01098 6.32493 8.18342 6.3953 8.18342 6.3953L7.40625 6.41667Z" fill="#6DA700"/>
<path fill-rule="evenodd" clip-rule="evenodd" d="M7.28125 6.42033C7.28125 6.42033 7.42535 6.3819 7.50604 6.28079C7.58674 6.17968 7.55648 6.01829 7.60067 6.01661C7.64486 6.01493 7.68737 6.19794 7.80553 6.25822C7.92369 6.3185 8.10789 6.39823 8.10789 6.39823L7.28125 6.42033Z" fill="#6DA700"/>
<path fill-rule="evenodd" clip-rule="evenodd" d="M7.48828 6.78176L7.59299 6.69458C7.59299 6.69458 7.73709 6.80938 8.01736 6.80385C8.28154 6.79881 8.37545 6.70563 8.41387 6.69458L8.51858 6.78728C8.45806 6.80385 8.24311 6.90736 8.00079 6.91817C7.74718 6.90736 7.52142 6.81466 7.48828 6.78176Z" fill="#FFC200"/>
</svg>
