<svg width="17" height="17" viewBox="0 0 17 17" fill="none" xmlns="http://www.w3.org/2000/svg">
<path opacity="0.8" d="M0.521484 8.24292C0.521484 6.12119 1.36434 4.08636 2.86463 2.58607C4.36492 1.08577 6.39975 0.24292 8.52148 0.24292C10.6432 0.24292 12.678 1.08577 14.1783 2.58607C15.6786 4.08636 16.5215 6.12119 16.5215 8.24292C16.5215 10.3647 15.6786 12.3995 14.1783 13.8998C12.678 15.4001 10.6432 16.2429 8.52148 16.2429C6.39975 16.2429 4.36492 15.4001 2.86463 13.8998C1.36434 12.3995 0.521484 10.3647 0.521484 8.24292ZM8.02148 1.31992C7.35148 1.52392 6.68648 2.13992 6.13448 3.17492C5.95262 3.51902 5.7962 3.87597 5.66648 4.24292H8.02148V1.31992ZM4.61148 4.24292C4.77816 3.71174 4.99236 3.19665 5.25148 2.70392C5.42439 2.37698 5.62407 2.06491 5.84848 1.77092C4.60949 2.28475 3.54349 3.14254 2.77648 4.24292H4.61148ZM4.02948 7.74292C4.05948 6.86592 4.16748 6.02492 4.34148 5.24292H2.19548C1.8226 6.02797 1.6001 6.87593 1.53948 7.74292H4.02948ZM5.36848 5.24292C5.1718 6.06272 5.05856 6.90032 5.03048 7.74292H8.02148V5.24292H5.36848ZM9.02148 5.24292V7.74292H12.0115C11.9838 6.90035 11.8709 6.06275 11.6745 5.24292H9.02148ZM5.03148 8.74292C5.05923 9.58549 5.17214 10.4231 5.36848 11.2429H8.02148V8.74292H5.03148ZM9.02148 8.74292V11.2429H11.6745C11.8615 10.4779 11.9805 9.63492 12.0125 8.74292H9.02148ZM5.66648 12.2429C5.80448 12.6289 5.96148 12.9869 6.13448 13.3109C6.68648 14.3459 7.35248 14.9609 8.02148 15.1659V12.2429H5.66648ZM5.84848 14.7149C5.62406 14.4209 5.42438 14.1089 5.25148 13.7819C4.99236 13.2892 4.77816 12.7741 4.61148 12.2429H2.77648C3.54345 13.3433 4.60946 14.2011 5.84848 14.7149ZM4.34148 11.2429C4.16065 10.421 4.0562 9.58409 4.02948 8.74292H1.53948C1.60148 9.63292 1.83048 10.4759 2.19548 11.2429H4.34148ZM11.1945 14.7149C12.4335 14.2011 13.4995 13.3433 14.2665 12.2429H12.4315C12.2648 12.7741 12.0506 13.2892 11.7915 13.7819C11.6186 14.1089 11.4189 14.421 11.1945 14.7149ZM9.02148 12.2429V15.1659C9.69148 14.9619 10.3565 14.3459 10.9085 13.3109C11.0815 12.9869 11.2385 12.6289 11.3765 12.2429H9.02148ZM12.7015 11.2429H14.8475C15.2125 10.4759 15.4415 9.63292 15.5035 8.74292H13.0135C12.9868 9.58409 12.8823 10.421 12.7015 11.2429ZM15.5035 7.74292C15.4428 6.87593 15.2203 6.02798 14.8475 5.24292H12.7015C12.8755 6.02492 12.9835 6.86592 13.0135 7.74292H15.5035ZM11.7915 2.70392C12.0385 3.16792 12.2535 3.68392 12.4315 4.24292H14.2665C13.4995 3.1425 12.4335 2.2847 11.1945 1.77092C11.4125 2.05492 11.6125 2.36892 11.7915 2.70392ZM11.3765 4.24292C11.2468 3.87597 11.0904 3.51901 10.9085 3.17492C10.3565 2.13992 9.69148 1.52492 9.02148 1.31992V4.24292H11.3765Z" fill="#A466FF"/>
</svg>
