<svg xmlns="http://www.w3.org/2000/svg" height="275" viewBox="0 0 275 275" width="275" version="1.1" y="0" x="0">
<g transform="translate(-160 -283.89)">
<path d="m186.446 411.651c5.368-61.388 59.482-106.797 120.871-101.425 61.388 5.372 106.8 59.49 101.433 120.879-5.367 61.388-59.482 106.797-120.871 101.425s-106.8-59.49-101.433-120.879z" stroke="#000" stroke-miterlimit="3.8637" stroke-width="1.2745" fill="none"/>
<path fill="#008251" d="m161.527 409.491c6.566-75.096 72.765-130.645 147.861-124.073 75.096 6.571 130.648 72.774 124.083 147.87-6.566 75.097-72.765 130.645-147.861 124.073-75.096-6.571-130.649-72.775-124.083-147.87z"/>
<path d="m169.906 410.204c6.167-70.523 68.333-122.689 138.857-116.518 70.522 6.171 122.692 68.342 116.526 138.866-6.166 70.522-68.333 122.688-138.857 116.518-70.522-6.172-122.692-68.343-116.526-138.866z" stroke="#fff" stroke-miterlimit="3.8637" stroke-width="7.2257" fill="none"/><g fill="#fff">
<path d="m262.666 315.273 20.852 103.127 12.4-107.963 20.676 107.274 13.474-103.073c6.339 1.921 12.646 4.218 18.425 7.165l-28.423 214.515c-0.669 5.072-2.172 1.387-3.127-5.234l-15.838-80.802-10.894 81.436c-0.491 6.672-1.732 10.453-2.754 5.439l-42.116-214.392c5.715-3.051 11.099-5.463 17.325-7.492z"/>
<path d="m373.829 368.198-17.284 124.762c18.639-15.265 31.347-37.738 33.612-63.634 1.973-22.55-4.303-43.919-16.328-61.128zm-42.691 159.529 28.009-199.723c33.127 21.829 53.532 60.673 49.832 102.969-4.055 46.342-36.072 83.594-77.841 96.754z" fill-rule="evenodd" clip-rule="evenodd"/>
<path d="m274.403 530.92c-54.37-11.53-92.704-62.623-87.736-119.397 2.975-34.004 20.896-63.825 46.734-82.109l4.363 21.237c-17.914 15.234-30.065 37.243-32.276 62.519-3.228 36.893 15.527 70.028 45.509 87.552l-13.882-68.123-19.247 4.636-3.328-15.639 35.994-8.421 23.869 117.745z"/>
</g></g>
</svg>
