<svg width="16" height="12" viewBox="0 0 16 12" fill="none" xmlns="http://www.w3.org/2000/svg">
<rect width="16" height="12" fill="#F8F8F8"/>
<g clip-path="url(#clip0)">
<path d="M4.17092 3.62453C4.06761 3.36578 3.99419 3.1202 4.23751 2.87792C4.35532 2.76109 4.40185 2.58421 4.50259 2.44435C4.61955 2.28187 4.81932 2.2251 4.94994 2.08318C4.99818 2.03677 5.02833 1.97575 5.03532 1.91042C5.05154 1.75369 5.11343 1.61548 5.26838 1.5332C5.32463 1.50489 5.37782 1.47126 5.42718 1.43283C5.51725 1.36085 5.75159 1.2794 5.85191 1.31395C5.98509 1.36002 6.08967 1.31395 6.1934 1.25019C6.40982 1.12226 6.63264 1.05069 6.8973 1.08565C7.0864 1.11116 7.29044 1.12679 7.46204 0.999268H7.52607C7.63919 1.07167 7.63577 1.19055 7.62553 1.29338C7.61144 1.43407 7.66821 1.54678 7.81121 1.58462C7.89659 1.60766 7.98495 1.62905 8.07245 1.64592C8.11514 1.65414 8.17149 1.66402 8.18429 1.69651C8.2718 1.91576 8.51426 1.86722 8.67262 1.96348C8.73409 2.00091 8.85874 1.8919 8.85916 1.81128C8.85916 1.61835 8.95435 1.55007 9.13577 1.64221C9.38973 1.76792 9.6658 1.84688 9.9498 1.87504C9.97541 1.87792 10.0096 1.89602 10.0254 1.88615C10.1961 1.77714 10.3741 1.87833 10.5453 1.87833C10.649 1.87833 10.6823 2.03752 10.7028 2.14612C10.7037 2.18877 10.6981 2.23132 10.6861 2.27241C10.5833 2.25102 10.5722 2.1453 10.5039 2.09635C10.4804 2.07907 10.4612 2.04328 10.4266 2.07989C10.4044 2.10334 10.4138 2.12555 10.4313 2.14818C10.6644 2.45299 10.7916 2.81622 11.014 3.12679C11.0323 3.15229 11.0673 3.17985 11.0648 3.20289C11.0387 3.40856 11.1736 3.55418 11.2701 3.71379C11.2782 3.80017 11.2155 3.83719 11.1476 3.85077C11.0477 3.87134 10.9815 3.93304 10.9038 3.98857C10.6666 4.15605 10.3859 4.25687 10.0928 4.27981C9.85973 4.29914 9.62325 4.29873 9.39616 4.35262C9.36297 4.3632 9.32775 4.36644 9.29309 4.36209C9.25843 4.35775 9.22523 4.34593 9.19596 4.32753C8.87538 4.0947 8.50743 4.15394 8.14843 4.17039C8.0378 4.18242 7.92577 4.16975 7.82103 4.13337C7.60766 4.05106 7.37983 4.00916 7.15 4.00996C6.75899 4.00667 6.39018 3.91988 6.02735 3.79647C5.83812 3.72673 5.6351 3.69862 5.43315 3.7142C5.26241 3.73024 5.10063 3.65414 4.92689 3.66278C4.72499 3.67306 4.52223 3.66648 4.31989 3.66278C4.26702 3.66836 4.21389 3.65472 4.17092 3.62453Z" fill="#CCC2CB"/>
<path d="M4.17216 3.62447C4.57298 3.63969 4.97765 3.57141 5.37549 3.67918C5.4694 3.70427 5.56416 3.64504 5.67088 3.66149C5.99017 3.71044 6.27916 3.8573 6.59504 3.90831C6.72931 3.93341 6.86524 3.94936 7.00184 3.95602C7.30363 3.96507 7.60201 3.98893 7.88075 4.11151C7.98747 4.15841 8.08608 4.11974 8.18938 4.11522C8.39641 4.10617 8.60472 4.10781 8.81217 4.11522C8.94919 4.11933 9.06103 4.19749 9.16988 4.26701C9.20731 4.2945 9.25157 4.31204 9.29823 4.31789C9.3449 4.32374 9.39234 4.31768 9.43582 4.30033C9.60657 4.24027 9.79054 4.2522 9.96727 4.24232C10.3574 4.2197 10.71 4.13044 10.9883 3.84866C11.0097 3.82727 11.031 3.803 11.0694 3.81493C11.1702 3.84496 11.2231 3.78243 11.2722 3.71374C11.3149 3.72854 11.3576 3.75981 11.3601 3.79601C11.3674 4.02143 11.5676 4.09218 11.7046 4.216C11.8105 4.31143 11.9155 4.41057 11.9462 4.56112C11.9539 4.59397 11.9684 4.62497 11.989 4.6522C12.0095 4.67943 12.0356 4.70233 12.0657 4.71947C12.0957 4.73662 12.1291 4.74766 12.1638 4.7519C12.1985 4.75615 12.2336 4.75352 12.2672 4.74418C12.493 4.68453 12.7368 4.68124 12.9417 4.55948C13.036 4.80341 13.0151 4.7631 12.9096 4.96096C12.7816 5.19872 12.6595 5.43936 12.5216 5.67095C12.4256 5.83221 12.2198 5.88897 12.1033 6.02924C11.8514 6.332 11.4852 6.55372 11.3904 6.96919C11.3673 7.05728 11.3634 7.14903 11.3789 7.23866C11.3944 7.32828 11.429 7.41385 11.4805 7.48996C11.6086 7.66808 11.5428 7.85771 11.5872 8.03788C11.6419 8.26083 11.5373 8.47021 11.3119 8.54673C11.0643 8.629 10.9759 8.85565 10.8018 9.00209C10.7403 9.05351 10.7651 9.1255 10.8018 9.19625C10.9384 9.45582 10.9106 9.55742 10.6396 9.67013C10.4688 9.74171 10.4616 9.86141 10.4744 10.0033C10.4769 10.0321 10.5218 10.0613 10.4919 10.0856C10.1551 10.3735 9.96044 10.8112 9.49558 10.9647C9.47168 10.9725 9.45289 10.9951 9.42344 10.9795C9.24885 10.8881 9.07725 10.9564 8.90651 10.9922C8.72168 11.0309 8.57313 10.9054 8.62606 10.7347C8.64868 10.6615 8.62606 10.6269 8.59191 10.5726C8.48562 10.4081 8.41007 10.2242 8.27262 10.0741C8.19877 9.99181 8.21413 9.8684 8.20474 9.76803C8.17657 9.4554 8.09632 9.16417 7.9149 8.90049C7.72196 8.61912 7.78471 8.33488 7.92984 8.06092C8.01906 7.89226 8.11553 7.73183 7.99729 7.54385C7.99174 7.53521 7.98021 7.52369 7.98277 7.51711C8.05534 7.32583 7.89527 7.18803 7.86112 7.02636C7.82909 6.86108 7.73746 6.71203 7.60244 6.60555C7.44279 6.47556 7.40779 6.32418 7.48505 6.13332C7.54225 5.99222 7.57384 5.83755 7.48719 5.69399C7.40053 5.55043 7.27632 5.50394 7.11453 5.54796C7.033 5.57017 6.99885 5.5747 6.97794 5.4735C6.94421 5.31225 6.69066 5.22669 6.51564 5.29374C6.33252 5.36285 6.14598 5.42291 5.96072 5.48543C5.93682 5.49325 5.90352 5.50477 5.88559 5.49531C5.72637 5.41057 5.56459 5.45623 5.41604 5.50806C5.20261 5.58334 5.04211 5.53397 4.87264 5.40316C4.76748 5.32072 4.66769 5.23211 4.57384 5.13784C4.53942 5.10674 4.5126 5.06866 4.4953 5.02636C4.43333 4.81939 4.29504 4.64136 4.10642 4.52575C4.04581 4.48914 3.96983 4.40687 4.04453 4.30938C4.05349 4.29786 4.06801 4.27482 4.06374 4.2703C3.88573 4.06997 4.1235 3.92887 4.14527 3.75693C4.15466 3.71662 4.16362 3.6689 4.17216 3.62447Z" fill="#669866"/>
<path d="M12.7264 7.94287C12.8242 8.11687 12.8468 8.26866 12.7845 8.45747C12.6709 8.80054 12.4959 9.12346 12.443 9.48833C12.4067 9.74049 12.1104 9.8026 11.9858 9.701C11.9043 9.63395 11.8398 9.35217 11.9068 9.25509C12.0157 9.09713 12.0964 8.94781 12.046 8.73843C12.0003 8.55085 12.0912 8.50972 12.2662 8.42374C12.4656 8.32378 12.6564 8.18804 12.7264 7.94287Z" fill="#669866"/>
</g>
<defs>
<clipPath id="clip0">
<rect width="9" height="10" fill="white" transform="translate(4 1)"/>
</clipPath>
</defs>
</svg>
